<?xml version="1.0" encoding="UTF-8"?>
<svg xmlns="http://www.w3.org/2000/svg" xmlns:xlink="http://www.w3.org/1999/xlink" viewBox="0 0 768.5 1004.43">
  <defs>
    <style>
      .cls-1 {
        letter-spacing: 0em;
      }

      .cls-2 {
        letter-spacing: .02em;
      }

      .cls-3 {
        fill: #382d31;
      }

      .cls-4 {
        letter-spacing: 0em;
      }

      .cls-5 {
        letter-spacing: 0em;
      }

      .cls-6 {
        letter-spacing: -.06em;
      }

      .cls-7 {
        fill: #313131;
      }

      .cls-8 {
        letter-spacing: -.01em;
      }

      .cls-9 {
        letter-spacing: 0em;
      }

      .cls-10 {
        letter-spacing: .01em;
      }

      .cls-11 {
        letter-spacing: .01em;
      }

      .cls-12 {
        letter-spacing: -.05em;
      }

      .cls-13 {
        letter-spacing: .01em;
      }

      .cls-14 {
        letter-spacing: .02em;
      }

      .cls-15 {
        font-family: Montserrat-Bold, 'Montserrat Bold';
        font-size: 15.49px;
      }

      .cls-15, .cls-16, .cls-17, .cls-18, .cls-19, .cls-20 {
        fill: #404040;
      }

      .cls-15, .cls-18 {
        font-weight: 700;
      }

      .cls-21 {
        letter-spacing: .01em;
      }

      .cls-22 {
        fill: #fff;
      }

      .cls-23 {
        letter-spacing: 0em;
      }

      .cls-16 {
        font-size: 10.2px;
      }

      .cls-16, .cls-19, .cls-20 {
        font-family: Montserrat-Regular, 'Montserrat Regular';
      }

      .cls-24 {
        fill: #fef2f6;
      }

      .cls-25 {
        letter-spacing: 0em;
      }

      .cls-26 {
        letter-spacing: -.06em;
      }

      .cls-27 {
        fill: none;
      }

      .cls-28 {
        fill: #faaac0;
      }

      .cls-29 {
        letter-spacing: -.01em;
      }

      .cls-30 {
        letter-spacing: .05em;
      }

      .cls-31 {
        letter-spacing: -.01em;
      }

      .cls-32 {
        letter-spacing: 0em;
      }

      .cls-33 {
        letter-spacing: -.01em;
      }

      .cls-34, .cls-19 {
        letter-spacing: .02em;
      }

      .cls-18 {
        font-family: AbhayaLibre-Bold, FAGPTD+AbhayaLibre-Bold;
        font-size: 48px;
        letter-spacing: .02em;
      }

      .cls-35 {
        letter-spacing: 0em;
      }

      .cls-36 {
        letter-spacing: .04em;
      }

      .cls-19, .cls-20 {
        font-size: 11px;
      }

      .cls-37 {
        letter-spacing: 0em;
      }

      .cls-38 {
        letter-spacing: .01em;
      }

      .cls-39 {
        letter-spacing: .02em;
      }

      .cls-40 {
        letter-spacing: -.02em;
      }

      .cls-41 {
        letter-spacing: -.02em;
      }

      .cls-42 {
        letter-spacing: 0em;
      }

      .cls-43 {
        letter-spacing: .02em;
      }

      .cls-44 {
        letter-spacing: -.06em;
      }

      .cls-45 {
        letter-spacing: 0em;
      }

      .cls-46 {
        fill: #fb7ca6;
      }

      .cls-47 {
        letter-spacing: .02em;
      }

      .cls-48 {
        letter-spacing: 0em;
      }

      .cls-49 {
        fill: #fffdff;
        opacity: .15;
      }

      .cls-50 {
        letter-spacing: -.02em;
      }

      .cls-51 {
        letter-spacing: 0em;
      }

      .cls-52 {
        letter-spacing: .05em;
      }

      .cls-53 {
        clip-path: url(#clippath);
      }

      .cls-54 {
        letter-spacing: 0em;
      }

      .cls-55 {
        letter-spacing: -.02em;
      }

      .cls-56 {
        letter-spacing: 0em;
      }
    </style>
    <clipPath id="clippath">
      <rect class="cls-27" x="81.22" y="72.65" width="612.28" height="858.9"/>
    </clipPath>
  </defs>
  <g id="BACKGROUND">
    <rect class="cls-24" x="81.22" y="72.65" width="612.28" height="858.9"/>
  </g>
  <g id="OBJECTS">
    <g class="cls-53">
      <rect class="cls-24" x="81.22" y="72.65" width="612.28" height="858.9"/>
      <rect class="cls-28" x="134.63" y="363.61" width="504.42" height="28.67"/>
      <rect class="cls-28" x="134.63" y="431.63" width="504.42" height="39.34"/>
      <rect class="cls-28" x="134.72" y="511.32" width="504.42" height="39.34"/>
      <rect class="cls-49" x="434.38" y="672.91" width="205.71" height="39.46"/>
      <path class="cls-28" d="M705.39,787.24c-22.08-.53-44.24,8.19-60.05,23.61-18.21,17.77-27.91,43.5-48.24,58.82-20.69,15.6-48.6,17.49-74.41,15.29-25.82-2.19-51.65-7.85-77.4-4.98-25.75,2.86-52.51,16.72-61.11,41.16-8.72,24.79,4.69,53.62,26.49,68.28,21.8,14.67,49.86,17.21,75.87,13.45,26.01-3.76,50.78-13.23,75.89-20.96,25.12-7.72,51.46-13.78,77.52-10.43,18.49,2.38,36.23,9.44,54.83,10.73,18.6,1.29,39.77-5.16,47.81-21.98,13.4-28.02-17.4-62.92-3.86-90.88,8.05-16.62,39.29-32.39,26.88-54.2-10.36-18.2-41-27.47-60.23-27.93Z"/>
      <path class="cls-28" d="M358.56,83.03c-8.09,10.76-21.05,18.07-34.31,21.59-17.69,4.69-36.29,3.88-54.58,4.43s-37.3,2.73-52.78,12.49c-29.29,18.45-37.18,57.3-58.78,84.35-23.79,29.77-66,41.62-102.48,32.65C15.19,228.6-13.54,183.68,6.6,143.41c7.47-14.95,21.08-26.73,25.73-42.79,5.23-18.06-1.98-37.94,3.05-56.06,4.81-17.37,20.26-30.08,36.98-36.85,32.92-13.32,70.36-7.33,104.52,2.39,34.16,9.72,67.96,23.05,103.46,23.99,26.21.69,103.79-20.85,84.54,37-1.45,4.35-3.61,8.33-6.32,11.93Z"/>
      <path class="cls-46" d="M27.6,988.6c-.14-.63-.24-1.29-.44-1.9-3.49-10.55-2.94-21,.81-31.37,2.63-7.27,6.7-13.69,11.69-19.54,7.54-8.85,16.53-15.92,26.58-21.69,12.19-6.99,25.2-11.88,38.88-15.02,7.85-1.8,15.79-2.96,23.82-3.62,9.59-.78,19.18-1.06,28.78-.52,6.47.36,12.96.61,19.41,1.24,7.18.7,14.34,1.7,21.48,2.73,12.6,1.81,25.01,4.53,37.27,7.96,18.24,5.11,35.77,11.95,52.33,21.21,8.99,5.03,17.39,10.88,25.13,17.67,3.71,3.26,7.15,6.77,10.03,10.81,2.65,3.7,4.7,7.68,5.83,12.12,1.57,6.16.55,11.87-2.79,17.21-.57.9-1.13,1.8-1.7,2.7H27.6Z"/>
      <g>
        <path class="cls-3" d="M501.61,965.77c-.01-2.61-.07-5.22-.03-7.83.05-3.35.1-6.71.31-10.06.21-3.34.52-6.68.95-10,.69-5.23,1.47-10.44,2.3-15.65.63-3.97,1.45-7.92,2.08-11.89.47-2.97.82-5.96,1.15-8.95.41-3.71.48-7.45.15-11.16-.27-3.09-.67-6.2-1.31-9.23-1.08-5.19-2.4-10.34-3.61-15.51-1.04-4.44-1.56-8.93-1.36-13.49.13-2.91.27-5.82.45-8.72.07-1.15.27-2.28.43-3.42.04-.28.18-.55.27-.83.07,0,.14,0,.21.01,0,.37.04.75,0,1.11-.51,3.73-.69,7.48-.83,11.23-.19,5.36.5,10.6,1.76,15.79,1.11,4.57,2.22,9.13,3.23,13.72,1.18,5.38,1.59,10.83,1.41,16.34-.18,5.64-1.04,11.17-2.02,16.71-.96,5.43-1.87,10.86-2.73,16.3-.53,3.34-1,6.69-1.36,10.05-.33,3.03-.48,6.07-.69,9.11-.36,5.31-.31,10.63-.18,15.95,0,.14.02.27.03.41h-.61Z"/>
        <g>
          <path class="cls-22" d="M550.27,789.89c-.48,2.18-1.13,4.32-1.74,6.46-1.13,4-2.24,8.01-3.45,11.99-2.66,8.76-7.65,15.93-14.87,21.56-4.31,3.36-9.22,5.36-14.51,6.51-2.19.47-4.39.78-6.64.82-1.75.03-3.23.77-4.29,2.18-.68.91-1.25,1.91-1.94,2.98-.07-.55-.15-1.01-.19-1.48-.15-1.78-.88-3.27-2.3-4.36-.52-.4-1.16-.74-1.79-.9-2.42-.63-4.85-1.21-7.29-1.75-3.56-.79-7.17-.93-10.8-.6-1.69.16-3.37.43-5.05.45-4.16.05-7.85-1.31-10.94-4.12-2.46-2.24-5.01-4.36-7.96-5.94-1.58-.84-3.2-1.63-4.74-2.56-1.09-.66-2.17-1.42-3.06-2.32-2.3-2.32-1.94-5.5.81-7.28.81-.52,1.75-.93,2.68-1.15,2.04-.47,4.1-.86,6.18-1.16,3.09-.43,6.14.07,9.17.71,2.26.47,4.47,1.11,6.56,2.1,1.03.49,2.01,1.09,3.11,1.69-.06-.31-.11-.56-.16-.8-.86-3.65-1.68-7.32-2.58-10.96-1.37-5.53-3.18-10.91-5.01-16.29-.41-1.21-.81-2.45-1.07-3.7-.53-2.57.87-4.2,3.49-4.27,2.16-.06,4,.58,5.42,2.25.61.72,1.34,1.15,2.32,1.29,1.37.2,2.51.98,3.53,1.9,2.82,2.54,4.92,5.57,6.22,9.15.14.38.27.76.41,1.14.02.06.08.11.17.23.1-.29.2-.54.27-.79.48-1.66.91-3.33,1.43-4.97.71-2.26,1.54-4.48,2.2-6.76,1.09-3.73,3.44-6.48,6.55-8.65,1.85-1.29,3.95-1.71,6.09-.97,2.17.75,4.37,1.53,6.37,2.63,3.08,1.7,4.62,4.59,5.15,7.99.22,1.39.21,2.82.32,4.38.19-.35.35-.59.47-.85.71-1.5,1.38-3.02,2.12-4.5.5-1,1.06-1.97,1.67-2.9.35-.53.81-1.02,1.31-1.4,1.44-1.08,3.07-.8,4.05.71.49.76.88,1.61,1.21,2.45.6,1.53,1.45,2.88,2.47,4.17,2.45,3.09,3.58,6.59,2.84,10.54-.21,1.15-.75,2.23-1.15,3.35-.12.34-.29.65-.29,1.08.24-.21.48-.42.73-.62,2.56-2.06,4.64-4.51,6.25-7.39,1.13-2.01,2.61-3.8,4.44-5.25.97-.78,2.04-1.3,3.33-1.33.97-.02,1.6.42,2.03,1.25.67,1.3.73,2.71.43,4.07Z"/>
          <g>
            <path class="cls-3" d="M549.84,785.82c-.42-.82-1.05-1.27-2.03-1.25-1.29.03-2.36.56-3.33,1.33-1.82,1.46-3.31,3.24-4.44,5.25-1.61,2.89-3.69,5.33-6.25,7.39-.25.2-.49.41-.73.62,0-.43.17-.75.29-1.08.4-1.11.93-2.2,1.15-3.35.73-3.94-.4-7.44-2.84-10.54-1.02-1.29-1.88-2.64-2.47-4.17-.33-.85-.72-1.69-1.21-2.45-.98-1.51-2.61-1.78-4.05-.71-.5.38-.96.87-1.31,1.4-.61.93-1.17,1.9-1.67,2.9-.74,1.48-1.41,3-2.12,4.5-.12.26-.28.5-.47.85-.11-1.56-.1-2.99-.32-4.38-.53-3.41-2.07-6.3-5.15-7.99-2-1.1-4.2-1.88-6.37-2.63-2.15-.74-4.24-.32-6.09.97-3.11,2.17-5.46,4.92-6.55,8.65-.66,2.27-1.49,4.5-2.2,6.76-.52,1.65-.95,3.31-1.43,4.97-.07.25-.17.49-.27.79-.09-.12-.15-.17-.17-.23-.14-.38-.27-.76-.41-1.14-1.3-3.58-3.4-6.61-6.22-9.15-1.02-.92-2.16-1.7-3.53-1.9-.98-.14-1.71-.57-2.32-1.29-1.42-1.67-3.26-2.31-5.42-2.25-2.62.07-4.02,1.7-3.49,4.27.26,1.25.65,2.48,1.07,3.7,1.84,5.38,3.65,10.77,5.01,16.29.9,3.64,1.72,7.3,2.58,10.96.06.25.1.5.16.8-1.1-.6-2.08-1.2-3.11-1.69-2.09-.99-4.3-1.63-6.56-2.1-3.02-.63-6.07-1.14-9.17-.71-2.07.29-4.14.68-6.18,1.16-.94.22-1.88.63-2.68,1.15-2.75,1.78-3.11,4.96-.81,7.28.89.9,1.97,1.66,3.06,2.32,1.53.93,3.15,1.71,4.74,2.56,2.95,1.58,5.5,3.7,7.96,5.94,3.09,2.81,6.78,4.18,10.94,4.12,1.69-.02,3.37-.29,5.05-.45,3.63-.34,7.24-.19,10.8.6,2.44.54,4.87,1.12,7.29,1.75.63.16,1.27.5,1.79.9,1.41,1.09,2.15,2.57,2.3,4.36.04.47.12.93.19,1.48.69-1.07,1.25-2.07,1.94-2.98,1.06-1.41,2.54-2.15,4.29-2.18,2.24-.04,4.45-.35,6.64-.82,5.29-1.15,10.2-3.16,14.51-6.51,7.22-5.62,12.21-12.8,14.87-21.56,1.21-3.98,2.31-7.99,3.45-11.99.61-2.15,1.26-4.28,1.74-6.46.3-1.36.24-2.77-.43-4.07ZM453.41,821.12c-.86-.4-1.74-.79-2.5-1.34-.84-.61-1.65-1.31-2.29-2.12-1.1-1.37-.99-3.11.09-4.5.87-1.12,2.06-1.77,3.39-2.11,3.22-.82,6.46-1.51,9.82-1.27,4.32.3,8.49,1.22,12.46,3.01.34.15.66.34.99.51,1.45.76,2.46,1.79,3.03,3.45,1.39,4.1,3.42,7.88,6.29,11.17.09.1.15.22.23.33.01.02-.01.06-.03.16-.15-.08-.29-.14-.43-.22-2.72-1.65-5.7-2.42-8.84-2.71-1.68-.16-3.36-.38-5.04-.53-.74-.07-1.49-.05-2.23-.05-2.88,0-5.79.08-8.53-.92-2.19-.79-4.27-1.87-6.39-2.85ZM485.06,832.56c-2.38-.15-4.73.05-7.08.38-5.01.7-9.44-.54-13.25-3.93-1.49-1.33-3.06-2.56-4.6-3.83-.15-.13-.3-.26-.45-.39.04-.06.08-.12.11-.18,3.19,1.03,6.49.82,9.76.98,4.62.23,8.93,1.44,13.01,3.54,2.25,1.16,4.4,2.52,6.82,3.35.23.08.44.25.75.44-1.77-.13-3.42-.25-5.06-.36ZM498.38,834.56c-.46.39-.94.32-1.4.21-4.16-.94-7.78-2.8-10.74-5.97-3.68-3.95-6.09-8.59-7.82-13.64-1.22-3.56-1.95-7.25-2.76-10.91-1.2-5.42-2.87-10.71-4.66-15.97-.55-1.6-1.1-3.2-1.61-4.81-.21-.67-.37-1.37-.47-2.07-.22-1.53.49-2.61,1.98-2.95,1.96-.45,3.76-.08,5.31,1.27.2.18.41.36.58.57.72.87,1.59,1.4,2.75,1.56,1.1.14,2.03.76,2.85,1.47,3.54,3.05,5.93,6.82,7.12,11.35.32,1.2-.06,2.35-.16,3.53-.21,2.46-.42,4.93-.22,7.4.23,2.8.35,5.61.73,8.39.77,5.71,2.27,11.21,5.49,16.1.76,1.16,1.68,2.21,2.54,3.29.27.34.63.63.48,1.19ZM501.86,835.03c-.61-.11-1.23-.38-1.76-.71-1.34-.84-2.38-2-3.3-3.27-2.5-3.45-4.14-7.28-5.18-11.39-.9-3.55-1.46-7.16-1.65-10.82-.1-1.89-.18-3.79-.21-5.68-.07-5.02.79-9.9,2.39-14.66.84-2.5,1.71-5,2.47-7.52,1.06-3.49,3.36-5.99,6.26-8.01,1.79-1.25,3.8-1.45,5.82-.73,1.91.67,3.81,1.42,5.62,2.33,2.76,1.39,4.19,3.88,4.93,6.76.32,1.23.36,2.54.47,3.39-.1,2.87-.63,5.19-1.59,7.42-1.42,3.31-3.3,6.37-5.22,9.4-1.23,1.95-2.43,3.91-3.58,5.91-2.53,4.39-4.15,9.11-4.83,14.13-.52,3.82-.47,7.63.65,11.37.08.26.12.53.12.8,0,.91-.52,1.44-1.41,1.28ZM504.58,834.47c-.82-1.21-1.11-2.6-1.37-4-.89-4.84-.23-9.57,1.1-14.24.88-3.07,2.11-6,3.75-8.75,1.53-2.56,3.07-5.11,4.64-7.64,1.95-3.14,3.57-6.44,4.99-9.86,1.22-2.94,2.55-5.82,3.9-8.71.47-1,1.08-1.96,1.72-2.87.34-.48.82-.91,1.33-1.22.93-.58,1.85-.42,2.53.43.41.52.76,1.13,1,1.75.82,2.14,1.99,4.03,3.4,5.85,1.64,2.13,2.56,4.6,2.44,7.67.15,1.62-.46,3.37-1.28,5.07-.85,1.78-1.9,3.44-3.2,4.92-3.39,3.84-5.81,8.22-7.52,13.02-.57,1.59-1.11,3.19-1.72,4.77-1.83,4.72-4.48,8.87-8.52,12.03-1.45,1.13-2.99,2.09-4.78,2.61-1.23.36-1.69.22-2.41-.84ZM549.76,789.29c-.2,1.13-.42,2.26-.74,3.36-1.48,5.13-2.95,10.27-4.5,15.38-2.58,8.51-7.38,15.53-14.34,21.08-4.38,3.5-9.39,5.61-14.84,6.73-1.65.34-3.34.52-5.01.72-1.23.15-1.95.03-2.96-.39.44-.32.74-.6,1.09-.77,3.95-1.87,6.94-4.79,9.31-8.39,1.37-2.07,2.45-4.28,3.3-6.62.8-2.19,1.58-4.39,2.45-6.56,1.81-4.52,4.43-8.52,7.87-11.98,1.57-1.58,3.19-3.14,4.85-4.63,1.23-1.1,2.23-2.34,3.11-3.73.97-1.55,1.96-3.09,3.06-4.54.71-.94,1.56-1.79,2.47-2.54.63-.52,1.43-.91,2.22-1.17,1.21-.39,1.93.04,2.39,1.24.35.91.44,1.85.28,2.8Z"/>
            <g>
              <path class="cls-3" d="M516.01,835.3c.36-.13.71-.29,1.07-.4,7.55-2.32,13.46-6.78,17.7-13.46,3.62-5.71,6.18-11.85,7.72-18.42.19-.82.38-1.63.73-2.41-.2,1.02-.38,2.04-.59,3.05-1.48,7.22-4.39,13.82-8.61,19.85-3.63,5.18-8.5,8.75-14.39,10.95-1.16.43-2.38.69-3.57,1.03-.02-.06-.04-.12-.06-.19Z"/>
              <path class="cls-3" d="M521.06,795.86c0,.6.03,1.2,0,1.79-.48,8.47-2.78,16.49-6.08,24.25-1.66,3.9-4.07,7.33-6.73,10.59-.08.1-.19.18-.36.24,8.18-10.95,11.81-23.5,13.18-36.88Z"/>
              <path class="cls-3" d="M500.37,827c-.18-.91-.41-1.82-.54-2.74-.59-4.21-.59-8.43-.27-12.65.09-1.18.1-2.37.24-3.54.28-2.41.5-4.84.95-7.22.52-2.71,1.27-5.38,1.92-8.06.05-.19.13-.36.26-.53-1.49,5.65-2.49,11.38-2.85,17.22-.36,5.85-.48,11.68.52,17.49-.08,0-.16.02-.24.03Z"/>
              <path class="cls-3" d="M507.21,836.26c.9-.12,1.8-.26,2.7-.36,3.98-.45,7.57-1.97,10.91-4.1,4.63-2.95,8.14-6.99,11.06-11.59.22-.34.42-.69.67-1-.54,1.37-1.31,2.61-2.16,3.8-3.54,4.92-7.8,8.99-13.46,11.4-2.28.97-4.62,1.71-7.12,1.81-.87.04-1.75.15-2.62.23,0-.07.01-.13.02-.2Z"/>
              <path class="cls-3" d="M500.75,835.51c-.37-.31-.81-.56-1.1-.93-.68-.88-1.34-1.79-1.91-2.74-2.32-3.84-3.85-7.98-4.41-12.43-.57-4.6-.96-9.22-.51-13.86,0,1.08-.05,2.15,0,3.23.23,4.35.46,8.7,1.42,12.97.97,4.27,2.75,8.19,5.13,11.85.42.64.97,1.19,1.46,1.79-.03.04-.06.08-.09.13Z"/>
              <path class="cls-3" d="M521.1,826.22c2.34-3.54,4.76-7.01,6.32-10.99,1.56-3.96,2.06-8.13,2.4-12.33.68,1.9-.23,8.6-1.92,12.48-1.72,3.97-4.09,7.52-6.8,10.84Z"/>
              <path class="cls-3" d="M485.99,829.61c-.09-.18-.16-.37-.27-.53-2.32-3.1-5.26-5.42-8.76-7.07-3.18-1.49-6.39-2.9-9.73-4.05.49.11.99.19,1.47.32,3.87,1.05,7.52,2.64,11,4.61,2.36,1.33,4.29,3.18,5.91,5.34.26.34.47.72.7,1.08-.11.1-.21.2-.32.3Z"/>
              <path class="cls-3" d="M484.07,818.66c.57,1.55,1.09,3.12,1.7,4.65,1.4,3.47,3.34,6.58,6.37,8.87,1.07.81,2.27,1.45,3.42,2.16.27.17.56.32.85.47-.03.07-.06.14-.09.21-.48-.18-.99-.33-1.45-.55-3.5-1.69-6.08-4.34-7.91-7.74-1.37-2.54-2.24-5.26-2.89-8.06Z"/>
              <path class="cls-3" d="M515.27,814.62c-2.08,7.61-5.22,14.69-10.66,20.56,4.9-6.15,8.31-13.07,10.66-20.56Z"/>
              <path class="cls-3" d="M538.77,793.91c-.01.22.01.45-.04.66-.85,3.4-1.71,6.8-2.57,10.2-.46,1.83-1.02,3.63-1.89,5.47.71-2.89,1.37-5.64,2.05-8.39.56-2.26,1.12-4.51,1.71-6.76.11-.43.35-.83.53-1.25.07.02.13.05.2.07Z"/>
              <path class="cls-3" d="M524.75,824.1c-2.99,5.05-10.89,10.55-17.12,11.46,2.16-.9,4.31-1.7,6.38-2.68,2.11-1,4.02-2.36,5.85-3.83,1.82-1.47,3.43-3.14,4.89-4.96Z"/>
              <path class="cls-3" d="M528.95,779.95c1.19,2.27-.38,14.26-1.73,17.16,1.03-5.71,1.86-11.24,1.59-16.87,0-.08.08-.17.15-.29Z"/>
              <path class="cls-3" d="M502.31,771.94c-1.8,5.17-2.57,10.57-3.64,15.81-.38-2.78,2.22-14.56,3.64-15.81Z"/>
              <path class="cls-3" d="M489.21,827.67c-4.02-6.81-5.4-14.29-5.63-22.06.71,7.65,1.97,15.16,5.63,22.06Z"/>
              <path class="cls-3" d="M513.17,774.83c.86,1.58-.66,12.78-1.71,14.92.25-1.64.51-3.3.74-4.96.22-1.67.47-3.34.59-5.02.12-1.65.1-3.31.14-4.97.08,0,.16.02.24.03Z"/>
              <path class="cls-3" d="M453.45,821.26c1.45-.81,12.07.26,14.91,1.43-2.48-.33-4.93-.74-7.4-.97-2.52-.24-5.05-.31-7.5-.46Z"/>
              <path class="cls-3" d="M498.34,817.03c-.31-5.56-.15-11.08,1.34-16.49-1.15,5.44-1.24,10.96-1.34,16.49Z"/>
              <path class="cls-3" d="M463.46,811.81c-4.05-.51-8.11-.85-12.35-.56,1.42-1.02,9.38-.61,12.35.56Z"/>
              <path class="cls-3" d="M511.57,774.27c.74,1.09.3,8.3-.51,10.39.06-1.16.12-2.32.18-3.48.05-1.15.1-2.29.14-3.44.04-1.16-.09-2.32.19-3.47Z"/>
              <path class="cls-3" d="M527.36,789.12c.13-3.53.26-7.21.39-11.01.69,1.49.51,5.56-.39,11.01Z"/>
              <path class="cls-3" d="M481.98,823.91c-2.6-2.67-5.77-4.54-9.01-6.45,2.7.71,8.44,4.77,9.01,6.45Z"/>
              <path class="cls-3" d="M480.2,789.91c-1.03-3.02-1.4-6.06-2.83-9.03.37.18.6.21.66.33.25.44.52.89.64,1.37.54,2.23,1.03,4.46,1.53,6.7.03.15,0,.31,0,.63Z"/>
              <path class="cls-3" d="M547.32,784.94c.45,1.48-.49,7.06-1.56,9.48.51-3.09,1.02-6.19,1.56-9.48Z"/>
              <path class="cls-3" d="M505.92,810.58c.89-3,1.78-6,2.67-8.99-.52,3.11-1.13,6.19-2.67,8.99Z"/>
              <path class="cls-3" d="M451.79,820.08c3.23-.42,6.45-.46,9.72.3-3.29-.1-6.51-.2-9.72-.3Z"/>
              <path class="cls-3" d="M545.15,792.3c.34-2.4.65-4.66.98-6.92.01-.07.13-.13.21-.2.35.99-.34,5.18-1.18,7.12Z"/>
              <path class="cls-3" d="M479.3,781.31c.19.28.44.53.57.83.45,1.03.98,4.13.93,5.5-.58-2.18-1.12-4.2-1.66-6.23.05-.03.1-.07.16-.1Z"/>
              <path class="cls-3" d="M500.55,772.92c-.64,2.46-1.25,4.85-1.87,7.24-.15-1.57,1.06-6.35,1.87-7.24Z"/>
              <path class="cls-3" d="M515.68,783.52c.11-1.98.21-3.87.31-5.76.58.79.34,3.88-.31,5.76Z"/>
              <path class="cls-3" d="M535.29,802.55c.22-2.14.65-4.19,1.52-6.11.08.02.16.05.24.07-.59,2.01-1.17,4.03-1.76,6.04Z"/>
            </g>
          </g>
        </g>
        <g>
          <path class="cls-22" d="M501.88,944.62h-.59c-.13-1.89-.28-3.78-.47-5.66-.28-2.65-.61-5.3-1.01-7.93-1.04-6.73-3.12-13.16-6.24-19.21-3.47-6.74-7.07-13.41-10.68-20.08-5.04-9.32-10.07-18.64-15.24-27.89-2.87-5.14-6-10.14-9.02-15.2-.31-.52-.66-1.03-.9-1.59-.18-.41-.21-.88-.3-1.28.72-.47,1.28-.21,1.74.1,1.18.8,2.36,1.59,3.42,2.53,3.37,2.96,6.33,6.32,9.18,9.76,4.13,4.99,8.01,10.16,11.56,15.58,4.7,7.18,8.05,14.92,9.92,23.3,1.49,6.69,3.11,13.35,4.59,20.04.61,2.77.99,5.58,1.51,8.37.43,2.32.94,4.63,1.32,6.96.32,1.96.53,3.95.72,5.93.2,2.08.4,4.16.5,6.25Z"/>
          <path class="cls-3" d="M501.91,945.25c0-.21-.02-.41-.03-.62-.1-2.09-.3-4.17-.5-6.25-.19-1.98-.4-3.97-.72-5.93-.38-2.33-.89-4.64-1.32-6.96-.51-2.79-.9-5.6-1.51-8.37-1.48-6.69-3.09-13.36-4.59-20.04-1.87-8.39-5.22-16.12-9.92-23.3-3.55-5.42-7.43-10.59-11.56-15.58-2.85-3.45-5.81-6.8-9.18-9.76-1.06-.93-2.25-1.73-3.42-2.53-.46-.31-1.02-.58-1.74-.1.09.4.12.87.3,1.28.24.56.59,1.06.9,1.59,3.01,5.06,6.15,10.06,9.02,15.2,5.17,9.25,10.2,18.57,15.24,27.89,3.61,6.67,7.21,13.34,10.68,20.08,3.11,6.05,5.19,12.48,6.24,19.21.41,2.63.74,5.28,1.01,7.93.2,1.88.35,3.77.47,5.66.04.61.08,1.22.11,1.82.13,2.13.15,4.26.23,6.39,0,.13.08.27.16.54.11-.25.18-.33.18-.42-.01-2.57.03-5.15-.07-7.72ZM497.35,919.06c-1.95-5.47-4.64-10.6-7.4-15.68-7.53-13.86-15.06-27.73-22.69-41.53-2.54-4.59-5.38-9.01-8.08-13.51-.38-.63-.74-1.28-1.1-1.92.07-.08.14-.16.22-.25.49.27,1.02.47,1.45.81,1.2.94,2.41,1.88,3.51,2.92,4.15,3.92,7.78,8.3,11.3,12.78,3.73,4.74,7.19,9.67,10.31,14.85,3.45,5.74,5.87,11.87,7.42,18.36.26,1.11.54,2.21.71,3.36-3.96-9.93-9.55-18.95-15.32-27.85-.06.03-.12.07-.17.1,1.01,1.66,2.03,3.32,3.02,4.99,3.01,5.06,6.06,10.1,8.62,15.41,1.9,3.93,3.57,7.97,4.91,12.12.86,2.66,1.42,5.42,2.07,8.15.56,2.33,1.05,4.68,1.57,7.02.03.12.02.25.04.63-.2-.39-.31-.56-.38-.74Z"/>
        </g>
        <g>
          <path class="cls-22" d="M549.57,830.18c-.08,1.21-.13,2.43-.31,3.63-1.31,8.75-3.87,17.19-6.28,25.67-1.17,4.13-2.22,8.29-3.48,12.39-3.11,10.19-8.25,19.26-15.17,27.33-3.62,4.22-7.26,8.42-10.84,12.67-3.09,3.66-5.69,7.63-7.57,12.04v-1.32c.6-1.36,1.31-2.67,2.05-3.96,2.13-3.73,4.82-7.04,7.65-10.24,1.65-1.86,2.95-3.94,4.18-6.08.94-1.62,1.48-3.41,1.95-5.21,1.53-5.89,3.04-11.77,4.57-17.66,2.88-11.11,6.94-21.77,12.19-31.98,2.26-4.39,4.4-8.85,6.66-13.24.76-1.47,1.69-2.85,2.6-4.24.28-.42.73-.73,1.06-1.05.7.29.77.77.74,1.25Z"/>
          <path class="cls-3" d="M548.83,828.93c-.33.32-.78.62-1.06,1.05-.91,1.39-1.84,2.77-2.6,4.24-2.26,4.39-4.39,8.85-6.66,13.24-5.25,10.21-9.31,20.87-12.19,31.98-1.53,5.89-3.04,11.78-4.57,17.66-.47,1.8-1.01,3.59-1.95,5.21-1.23,2.14-2.53,4.22-4.18,6.08-2.83,3.2-5.52,6.52-7.65,10.24-.74,1.29-1.45,2.6-2.05,3.96-.43.96-.8,1.94-1.1,2.95-.14.49-.41.99-.11,1.75.18-.58.29-.97.42-1.35.14-.42.29-.83.46-1.24.11-.27.22-.53.33-.79,1.88-4.41,4.48-8.38,7.57-12.04,3.58-4.25,7.22-8.45,10.84-12.67,6.92-8.08,12.07-17.14,15.17-27.33,1.25-4.1,2.3-8.27,3.48-12.39,2.41-8.48,4.97-16.92,6.28-25.67.18-1.2.23-2.42.31-3.63.03-.48-.04-.95-.74-1.25ZM548.91,832.17c-1.16,8.77-3.68,17.22-6.1,25.7-1.25,4.38-2.38,8.81-3.68,13.17-3.05,10.2-8.11,19.31-15,27.41-.65.76-1.29,1.53-2.07,2.2.09-.2.16-.41.27-.61,4.4-8.14,8.04-16.62,11.26-25.29,2.66-7.15,5.29-14.32,7.93-21.48.1-.28.19-.57.19-.89-.14.3-.28.6-.4.91-3.6,9.26-7.17,18.53-10.8,27.78-2.39,6.08-5.14,12-8.18,17.78-.19.36-.39.7-.59,1.05-.05-.02-.11-.03-.16-.05.59-2.11,1.21-4.21,1.76-6.32,1.26-4.84,2.49-9.68,3.75-14.52,2.89-11.15,7.1-21.78,12.36-32.02,2.12-4.12,4.13-8.3,6.24-12.43.68-1.32,1.5-2.57,2.28-3.84.21-.34.49-.62.84-1.06.33.93.2,1.72.1,2.49Z"/>
        </g>
      </g>
      <g>
        <path class="cls-3" d="M612.9,893.46c.39,1.07.84,2.12,1.15,3.21,2.39,8.39,1.89,16.59-1.76,24.54-1.26,2.74-2.64,5.43-3.97,8.14-.69,1.42-1.41,2.83-2.08,4.26-2.05,4.38-3.32,8.99-4.17,13.73-.98,5.4-1.86,10.81-2.93,16.19-.69,3.46-1.62,6.88-2.52,10.29-1.21,4.62-2.37,9.23-2.71,14.02-.3,4.25-.14,8.48.21,12.72.02.29.07.57.06.86,0,.11-.11.21-.23.43-.11-.26-.21-.4-.23-.55-.57-6.36-.77-12.72.45-19.04.49-2.56,1.06-5.13,1.78-7.63,2.07-7.16,3.48-14.46,4.69-21.8.45-2.72.96-5.43,1.5-8.13.95-4.73,2.58-9.23,4.76-13.54,1.34-2.64,2.69-5.28,3.98-7.94,1.77-3.63,3.15-7.4,3.8-11.41.57-3.49.5-6.97-.08-10.45-.4-2.38-.93-4.73-1.75-7.01-.09-.26-.14-.53-.21-.79.09-.03.18-.06.27-.09Z"/>
        <g>
          <path class="cls-22" d="M565.97,902.05c-.04-1.27.32-2.44.86-3.57,1.38-2.92,3.53-5.15,6.18-6.92,5.99-4.01,12.57-5.6,19.74-4.69.65.08,1.29.23,2,.36-.07-.12-.1-.21-.16-.25-4.17-2.99-7.4-6.85-10.19-11.11-1.8-2.74-3.16-5.72-4.51-8.7-1.27-2.82-2.7-5.58-4.04-8.37-.78-1.63-1.56-3.26-2.26-4.92-.58-1.37-.64-2.79.03-4.17.79-1.62,2.19-2.42,3.98-2.27.88.07,1.69.35,2.43.81,1.76,1.09,3.54,2.15,5.26,3.29,2.71,1.79,4.79,4.19,6.44,6.96.9,1.52,1.71,3.11,2.64,4.65-.1-.3-.2-.6-.29-.91-1.99-6.66-1.62-13.21.9-19.66.69-1.75,1.6-3.38,2.88-4.78.54-.59,1.15-1.13,1.81-1.57,1.52-1.03,3.16-1.08,4.72-.15,1.37.81,2.82,1.39,4.28,1.99,1.32.54,2.62,1.23,3.73,2.11,2.32,1.84,3.38,4.36,3.39,7.31,0,.28-.02.56-.04,1.05.31-.39.5-.63.68-.87,1.56-2.15,3.35-4.09,5.46-5.71,1.57-1.21,3.29-2.1,5.28-2.36,1.5-.2,2.88-.77,4.23-1.4,1.19-.56,2.39-.58,3.6-.13,2.62.98,4.07,2.99,4.77,5.6.62,2.32.74,4.7.73,7.09-.02,3.64-.08,7.29-.12,10.93-.03,2.66-.46,5.26-1.19,7.81-.09.32-.17.64-.29,1.13.63-.35,1.09-.63,1.56-.88,3.05-1.61,6.2-1.9,9.5-.86,2.35.74,4.75,1.37,7.12,2.04,1.77.5,3.56.95,5.13,1.97.34.22.67.44.98.7,1.62,1.38,1.15,3.93-.9,4.6-.66.21-1.41.26-2.12.23-1.69-.05-3.38-.19-5.07-.28-3.66-.21-7.29.13-10.86.93-2.55.57-5.06,1.35-7.42,2.49-3.25,1.57-6.5,3.16-9.7,4.83-1.75.91-3.43,1.97-5.28,2.68-.72.28-1.46.52-2.2.75-.91.27-1.83.49-2.74.76-1.86.55-2.71,1.93-2.95,3.74-.12.88-.1,1.77-.16,2.83-.2-.33-.33-.54-.46-.75-.38-.67-.74-1.36-1.15-2.02-1.22-1.97-4.44-3.53-7.44-2.62-3.04.92-5.66,2.48-8,4.57-1.52,1.36-3.02,2.74-4.53,4.11-2.67,2.42-5.77,4.07-9.26,4.92-2.67.65-5.4.75-8.13.42-1.71-.21-3.42-.4-5.13-.63-.62-.08-1.25-.21-1.84-.42-1.25-.45-1.85-1.36-1.89-2.69Z"/>
          <g>
            <path class="cls-3" d="M567.86,904.74c.59.21,1.22.34,1.84.42,1.71.23,3.42.42,5.13.63,2.73.33,5.46.23,8.13-.42,3.48-.85,6.59-2.49,9.26-4.92,1.51-1.37,3.01-2.75,4.53-4.11,2.34-2.09,4.96-3.65,8-4.57,3-.91,6.23.65,7.44,2.62.41.66.77,1.34,1.15,2.02.12.22.26.43.46.75.05-1.07.04-1.96.16-2.83.24-1.81,1.09-3.19,2.95-3.74.91-.27,1.83-.49,2.74-.76.74-.22,1.48-.47,2.2-.75,1.85-.72,3.53-1.77,5.28-2.68,3.2-1.67,6.45-3.26,9.7-4.83,2.36-1.14,4.87-1.92,7.42-2.49,3.57-.8,7.2-1.14,10.86-.93,1.69.1,3.38.24,5.07.28.71.02,1.46-.02,2.12-.23,2.05-.67,2.52-3.22.9-4.6-.3-.26-.64-.49-.98-.7-1.57-1.01-3.36-1.47-5.13-1.97-2.38-.67-4.77-1.3-7.12-2.04-3.3-1.04-6.46-.74-9.5.86-.47.25-.93.52-1.56.88.12-.49.2-.81.29-1.13.73-2.55,1.16-5.15,1.19-7.81.04-3.64.11-7.29.12-10.93,0-2.39-.11-4.77-.73-7.09-.7-2.61-2.14-4.62-4.77-5.6-1.21-.45-2.41-.43-3.6.13-1.35.63-2.73,1.2-4.23,1.4-1.99.26-3.71,1.16-5.28,2.36-2.11,1.62-3.9,3.56-5.46,5.71-.18.24-.37.47-.68.87.02-.49.04-.77.04-1.05-.02-2.95-1.07-5.48-3.39-7.31-1.11-.88-2.42-1.57-3.73-2.11-1.46-.6-2.91-1.18-4.28-1.99-1.55-.93-3.2-.87-4.72.15-.66.45-1.27.98-1.81,1.57-1.28,1.39-2.19,3.03-2.88,4.78-2.53,6.45-2.89,13-.9,19.66.09.3.19.6.29.91-.93-1.55-1.74-3.13-2.64-4.65-1.65-2.78-3.73-5.17-6.44-6.96-1.72-1.14-3.5-2.2-5.26-3.29-.74-.46-1.55-.73-2.43-.81-1.79-.15-3.19.65-3.98,2.27-.67,1.39-.61,2.8-.03,4.17.71,1.66,1.48,3.29,2.26,4.92,1.34,2.79,2.76,5.55,4.04,8.37,1.35,2.98,2.71,5.96,4.51,8.7,2.79,4.25,6.02,8.11,10.19,11.11.06.04.08.13.16.25-.71-.13-1.35-.27-2-.36-7.16-.9-13.75.69-19.74,4.69-2.65,1.77-4.81,4-6.18,6.92-.53,1.13-.89,2.3-.86,3.57.04,1.33.64,2.25,1.89,2.69ZM604.29,891.47c-3.13.84-5.73,2.58-8.11,4.69-1.48,1.32-2.93,2.66-4.4,3.98-2.3,2.06-4.95,3.5-7.88,4.45-.19.06-.39.11-.58.16-.05.01-.11,0-.2,0,.54-.44,1.07-.86,1.58-1.31,1.48-1.31,2.53-2.95,3.55-4.62.72-1.17,1.46-2.34,2.29-3.43,1.45-1.89,3.3-3.27,5.64-3.86.88-.23,1.8-.4,2.71-.42,1.97-.05,3.94.01,5.95.12-.19.08-.37.19-.56.24ZM640.75,870.18c3.02-1.55,6.12-1.72,9.34-.66,2.12.7,4.3,1.23,6.45,1.86,1.27.37,2.56.7,3.77,1.2.92.38,1.8.91,2.58,1.53,1.23.97.86,2.88-.61,3.49-.77.32-1.56.33-2.37.28-1.92-.11-3.84-.26-5.76-.32-5.32-.17-10.48.69-15.43,2.62-2.37.92-4.64,2.12-6.95,3.2-.41.19-.82.41-1.22.61-.03-.03-.06-.06-.09-.09.14-.14.27-.28.42-.41,2.89-2.44,4.99-5.45,6.47-8.91.19-.45.43-.89.55-1.36.39-1.54,1.51-2.36,2.83-3.04ZM619.4,844.92c.77-.81,1.61-1.56,2.46-2.28,1.77-1.5,3.83-2.36,6.13-2.73.89-.14,1.75-.52,2.62-.82.49-.17.96-.39,1.44-.58.96-.38,1.91-.31,2.86.05,2.3.89,3.63,2.62,4.32,4.93.71,2.39.82,4.86.81,7.33-.02,3.67-.05,7.35-.17,11.02-.18,6.03-2.05,11.56-5.23,16.65-1.07,1.71-2.44,3.2-4,4.48-2.36,1.93-4.86,3.65-7.61,4.99-2.32,1.13-4.77,1.79-7.33,2.08-.11.01-.23,0-.34.03-2.39.44-4.35-.82-5.34-3.19-1.65-3.98-2.2-8.11-1.97-12.39.36-6.67,1.82-13.08,4.55-19.18,1.71-3.83,3.92-7.35,6.82-10.4ZM594.35,861.38c-1.77-6.82-1.25-13.49,1.73-19.92.71-1.52,1.64-2.91,2.88-4.05.83-.77,1.74-1.41,2.95-1.44.92-.02,1.77.2,2.53.71,1.11.74,2.31,1.25,3.58,1.67,1.56.52,3.05,1.29,4.26,2.39,2.48,2.25,3.47,5.07,2.78,8.4-.11.52-.36,1.03-.63,1.5-4.91,8.47-7.09,17.63-6.94,27.38.03,2.16.5,4.27,1.06,6.35.09.33.21.65.31.97-.07.03-.15.05-.22.08-1.12-1.52-2.29-3.01-3.36-4.56-2.38-3.48-4.78-6.94-7.03-10.51-1.75-2.77-3.07-5.8-3.9-8.98ZM591.65,859.31c.29.49.61.96.86,1.46,1.08,2.15,2.08,4.34,3.22,6.46.96,1.79,1.99,3.55,3.12,5.23,2.17,3.24,4.43,6.41,6.65,9.61.06.09.1.19.15.28-3.12-2.26-6.4-4.26-8.77-7.35-1.55-2.01-2.6-4.23-3.11-6.73-.59-2.89-1.11-5.81-2.19-8.57-.04-.1-.05-.22.05-.4ZM591.41,883.61c-3.9-3.84-7.08-8.2-9.4-13.17-1.18-2.52-2.32-5.06-3.52-7.57-.9-1.89-1.91-3.73-2.81-5.61-.67-1.4-1.3-2.81-1.83-4.27-.45-1.26-.19-2.5.56-3.61.68-1.01,1.65-1.47,2.86-1.44.89.02,1.7.28,2.45.74,1.78,1.1,3.58,2.19,5.34,3.32,1.58,1.02,2.94,2.3,4.13,3.75.45.54.76,1.22,1.04,1.87.51,1.18.96,2.4,1.57,3.94.32,1.5.75,3.35,1.12,5.2,1.41,6.93,4.81,12.52,10.92,16.31,1.44.89,2.88,1.78,4.26,2.77,1.14.82,1.77,2.01,1.86,3.44.05.77-.15,1.05-.92,1.18-.36.07-.74.07-1.11.06-6.39-.2-11.93-2.41-16.51-6.92ZM566.5,902.04c0-1.21.35-2.32.86-3.39,1.4-2.91,3.6-5.1,6.26-6.84,5.83-3.81,12.22-5.29,19.13-4.42,2.23.28,4.34,1.01,6.38,2.09-.62.08-1.24.14-1.85.25-2.06.38-3.83,1.34-5.35,2.77-1.82,1.71-3.21,3.74-4.33,5.97-.82,1.63-1.84,3.11-3.07,4.45-1.33,1.45-3.04,2.21-4.92,2.4-1.53.15-3.1.06-4.64-.05-1.74-.13-3.48-.39-5.21-.64-.62-.09-1.25-.22-1.83-.45-.93-.37-1.43-1.08-1.42-2.14Z"/>
            <g>
              <path class="cls-3" d="M651.52,875.36c-4.11,1.04-8.25,1.9-12.13,3.73-3.81,1.8-7.44,3.87-10.81,6.48-.04-.17-.08-.24-.06-.26,2.11-2.14,4.2-4.3,6.85-5.81,1.87-1.07,3.74-2.1,5.75-2.87,1.82-.69,3.65-1.36,5.51-1.95-1.61.65-3.24,1.27-4.82,1.98-1.64.74-3.26,1.53-4.86,2.37-1.56.83-3.05,1.79-4.36,3.03,5.84-3.57,12.14-5.82,18.93-6.7Z"/>
              <path class="cls-3" d="M604.83,890.39c-2.36-.35-4.52-1.17-6.49-2.53-3.41-2.35-6.06-5.41-8.4-8.79-1.57-2.27-2.95-4.64-4.08-7.15-.81-1.8-1.55-3.64-1.96-5.6.34.81.69,1.62,1.02,2.44,2.45,6.08,5.81,11.56,10.52,16.17,1.42,1.39,3.02,2.56,4.73,3.59,1.3.78,2.73,1.2,4.15,1.67.17.06.34.13.52.19Z"/>
              <path class="cls-3" d="M616.05,890.5c.19-.19.25-.28.34-.34,3.41-2.21,5.83-5.31,7.85-8.76,1.63-2.79,2.79-5.79,3.69-8.89.33-1.13.67-2.25,1.12-3.34-.09.42-.16.84-.27,1.26-.82,3.2-1.73,6.37-3.17,9.36-1.7,3.53-3.91,6.69-6.93,9.22-.74.62-1.49,1.23-2.64,1.49Z"/>
              <path class="cls-3" d="M608.75,890.39c-1.63.07-3.18-.28-4.67-.9-2.92-1.2-5.38-3.07-7.54-5.34-2.8-2.95-5.06-6.28-6.86-9.93-.1-.2-.14-.43-.26-.8.8,1.37,1.49,2.63,2.26,3.85,2.04,3.21,4.41,6.15,7.35,8.59,2.74,2.28,5.84,3.86,9.39,4.44.11.02.22.06.33.09Z"/>
              <path class="cls-3" d="M617.54,860.12c-2.08,8.1-3.47,16.31-3.71,24.69-.27-8.45,1.1-16.66,3.71-24.69Z"/>
              <path class="cls-3" d="M578.28,896.59c1.29-.76,2.56-1.59,3.89-2.28,3.24-1.68,6.6-3.06,10.12-4.03,2.19-.6,4.43-.9,6.7-.83.31.01.63.07.94.11.11.01.21.06.31.2-.14.02-.28.05-.42.05-2.7.01-5.35.36-7.97,1.06-2.53.68-4.94,1.65-7.31,2.74-2.09.97-4.16,2-6.23,3,0-.01-.02-.02-.03-.03Z"/>
              <path class="cls-3" d="M633.36,856.29c-.08,9.06-2.98,18.64-7.13,24.63,4.33-7.65,6.48-15.93,7.13-24.63Z"/>
              <path class="cls-3" d="M607.51,877.49c-2.68-7.02-4.14-17.61-3.71-24.06.18,2.67.27,5.34.58,8,.32,2.72.79,5.43,1.32,8.13.52,2.66,1.21,5.29,1.82,7.94Z"/>
              <path class="cls-3" d="M607.25,882.94c-4.35-5.61-7.35-11.84-8.72-18.83,1.78,6.8,4.87,12.99,8.72,18.83Z"/>
              <path class="cls-3" d="M613.22,869.05c.34-4.46,3.48-14.9,7.31-20.59-1.02,2.2-2.11,4.37-3.02,6.62-.93,2.29-1.75,4.62-2.47,6.98-.72,2.35-1.25,4.77-1.82,6.99Z"/>
              <path class="cls-3" d="M597.47,838.76c-.73,5.22-.27,10.4.26,15.43-.44-.91-.91-4.13-1.05-7.68-.19-4.69.03-7.14.79-7.75Z"/>
              <path class="cls-3" d="M610.23,838.94c.33.74.62,1.52.74,2.31.63,4.02.63,8.05.1,12.08-.01.1-.05.19-.08.31,0-1.65,0-3.27-.03-4.9-.04-1.66-.04-3.33-.2-4.98-.16-1.59-.51-3.17-.78-4.75.08-.02.17-.05.25-.07Z"/>
              <path class="cls-3" d="M630.05,839.03c.05.26.12.52.14.78.19,2.37-.26,4.69-.66,7-.27,1.52-.67,3.01-1.15,4.48.32-2.05.68-4.1.93-6.15.25-2.02.38-4.06.57-6.09.05,0,.11-.01.16-.02Z"/>
              <path class="cls-3" d="M582.26,900.02c-2.03,1.9-8.2,5.63-9.74,5.04,1.68-.75,3.4-1.43,5.02-2.27,1.62-.84,3.15-1.84,4.72-2.77Z"/>
              <path class="cls-3" d="M576.97,892.78c3.79-2.19,7.89-3.46,12.21-4.04-4.19,1-8.27,2.31-12.21,4.04Z"/>
              <path class="cls-3" d="M582.48,850.16c.61,1.3.82,2.53,1.25,3.68.44,1.18.86,2.37,1.27,3.57.41,1.19.78,2.4,1.13,3.48-1.71-3.2-3.83-9.21-3.65-10.73Z"/>
              <path class="cls-3" d="M584.76,895.05c3.36-2.05,6.81-3.93,10.83-4.51-.15.07-.3.16-.45.21-.98.32-1.99.58-2.94.97-1.88.77-3.72,1.61-5.58,2.44-.62.28-1.23.59-1.85.89Z"/>
              <path class="cls-3" d="M598.31,848.15c-.49-7.18-.5-9.27.04-10.5.09.27.19.43.18.59-.07,3.34-.15,6.69-.22,9.92Z"/>
              <path class="cls-3" d="M605.26,861.41c.32,4.32,1.47,8.46,2.15,12.69-1.06-4.16-2.22-8.3-2.3-12.64,0,0,.06-.02.15-.05Z"/>
              <path class="cls-3" d="M638.69,875.52c3.02-2.45,6.21-4.59,10.11-5.36-1.15.46-2.33.87-3.45,1.4-1.18.56-2.33,1.21-3.45,1.88-1.09.65-2.14,1.38-3.21,2.07Z"/>
              <path class="cls-3" d="M611.6,874.92c-.13-3.7.48-7.3,1.59-10.82-.67,3.59-1.37,7.17-1.59,10.82Z"/>
              <path class="cls-3" d="M605.75,888.31c-4.02-1.7-7.11-4.51-9.59-8.04,4.46,4.97,4.5,4.9,9.59,8.04Z"/>
              <path class="cls-3" d="M650.85,872.58c1.56-.93,6.21-1.63,7.12-1.01-2.42.34-4.82.68-7.12,1.01Z"/>
              <path class="cls-3" d="M630.73,845.69c.05-2.43.6-4.83.41-7.3.34.35.47.76.46,1.21-.06,2.06-.33,4.09-.86,6.09Z"/>
              <path class="cls-3" d="M566.73,899.39c.46-1.27,4.14-4.03,5.73-4.6-1.76,1.41-3.74,3.01-5.73,4.6Z"/>
              <path class="cls-3" d="M655.35,873.18c1.54-.62,3.18-.79,4.83-.91.22-.02.45.06.66.13.08.03.14.15.25.27-1.96.17-3.85.34-5.74.5Z"/>
              <path class="cls-3" d="M574.96,905.56c.53-.17,1.05-.28,1.52-.51,1.25-.61,2.48-1.27,3.74-1.89-1.32,1.1-2.71,2.07-4.38,2.57-.32.1-.66.23-.88-.18Z"/>
              <path class="cls-3" d="M585.58,856.14c-.53-1.54-1.06-3.08-1.58-4.62-.01-.04.09-.13.22-.31.8,1.61,1.09,3.28,1.36,4.92Z"/>
              <path class="cls-3" d="M606.24,842.69c-.21-1.78-.43-3.56-.64-5.34.07,0,.14-.02.21-.02.51,1.75.52,3.55.43,5.37Z"/>
              <path class="cls-3" d="M603.75,886.33c-1.62-1.1-3.17-2.24-4.3-4.06,1.52,1.43,2.91,2.74,4.3,4.06Z"/>
            </g>
          </g>
        </g>
        <g>
          <path class="cls-22" d="M603.39,948.99c.37-.66.78-1.3,1.2-1.94.8-1.19,1.54-2.42,2.24-3.67,2.24-4,4.94-7.61,8.54-10.5,2.85-2.28,5.91-4.25,9.15-5.92,2.01-1.03,4.03-2.05,6.08-3.01,1.4-.66,2.83-1.26,4.29-1.78,4.01-1.41,8.05-2.76,12.07-4.13,3.26-1.12,6.53-2.21,9.78-3.36,2.19-.78,4.35-1.64,6.54-2.44.41-.15.87-.16,1.24-.22.42.49.23.83-.03,1.1-.43.46-.88.91-1.37,1.3-2.62,2.1-5.45,3.91-8.35,5.59-3,1.74-6.01,3.45-9.08,5.06-1.98,1.04-4.05,1.89-6.1,2.78-4.43,1.93-9.03,3.38-13.59,4.98-4.41,1.55-8.71,3.38-12.57,6.11-3.86,2.73-6.98,5.98-9.31,9.8l-.75.24Z"/>
          <path class="cls-3" d="M600.25,958.01c.14-.41.25-.69.33-.99.83-3.01,2.02-5.77,3.56-8.28,2.33-3.82,5.45-7.07,9.31-9.8,3.86-2.73,8.16-4.56,12.57-6.11,4.55-1.6,9.16-3.06,13.59-4.98,2.05-.89,4.12-1.74,6.1-2.78,3.07-1.61,6.08-3.32,9.08-5.06,2.9-1.68,5.73-3.49,8.35-5.59.49-.39.94-.85,1.37-1.3.26-.28.46-.61.03-1.1-.37.06-.83.07-1.24.22-2.19.8-4.35,1.66-6.54,2.44-3.25,1.15-6.52,2.25-9.78,3.36-4.02,1.38-8.06,2.72-12.07,4.13-1.46.51-2.89,1.12-4.29,1.78-2.05.96-4.07,1.98-6.08,3.01-3.25,1.66-6.31,3.63-9.15,5.92-3.6,2.88-6.3,6.5-8.54,10.5-.7,1.25-1.44,2.48-2.24,3.67-.43.64-.83,1.28-1.2,1.94-1.42,2.49-2.48,5.13-3.19,7.94-.08.3-.27.63.04,1.09ZM608.01,942.23c2.97-4.94,6.96-8.87,11.82-11.95,2.93-1.86,5.98-3.5,9.12-4.98,2.6-1.23,5.22-2.37,7.94-3.29,4.05-1.38,8.11-2.75,12.16-4.13,2.64-.9,5.28-1.8,7.9-2.75,2.08-.75,4.14-1.56,6.2-2.34.29-.11.59-.19.89-.29.05.05.09.11.14.16-.2.24-.36.54-.6.72-1.24.97-2.47,1.97-3.77,2.86-3.88,2.65-7.93,5.04-12.1,7.21-2.46,1.28-4.96,2.51-7.49,3.64-1.96.88-3.99,1.62-6.01,2.35-3,1.08-6.04,2.04-9.03,3.16-2.28.86-4.49,1.89-6.73,2.84-.1.04-.22.06-.39-.03.75-.48,1.47-1.01,2.25-1.44,2.86-1.58,5.71-3.16,8.61-4.66,2.29-1.18,4.64-2.25,6.98-3.32,1.38-.63,2.8-1.17,4.2-1.77,1.5-.64,2.99-1.31,4.49-1.96,1.37-.59,2.74-1.17,4.09-1.82-.67.22-1.36.41-2.01.66-1.47.57-2.94,1.15-4.39,1.76-1.53.64-3.05,1.32-4.58,1.98-1.21.52-2.42,1.03-3.63,1.57-1.52.68-3.06,1.31-4.53,2.07-2.55,1.3-5.08,2.63-7.58,4.04-4.96,2.8-9.56,6.1-13.7,10.03-.1.1-.21.19-.33.27-.03.03-.11,0-.38,0,.2-.26.36-.42.47-.61Z"/>
        </g>
      </g>
      <g>
        <path class="cls-3" d="M165.73,863.07c.41,1.12.88,2.22,1.21,3.36,2.5,8.78,1.97,17.36-1.85,25.69-1.32,2.87-2.76,5.68-4.15,8.52-.73,1.49-1.47,2.96-2.18,4.46-2.15,4.58-3.47,9.41-4.37,14.37-1.02,5.65-1.94,11.32-3.07,16.95-.73,3.62-1.7,7.2-2.64,10.77-1.27,4.83-2.48,9.67-2.84,14.67-.32,4.45-.15,8.88.22,13.31.02.3.07.6.07.9,0,.11-.12.22-.25.45-.12-.28-.22-.42-.24-.58-.59-6.66-.81-13.32.47-19.93.52-2.68,1.11-5.36,1.87-7.99,2.17-7.5,3.65-15.14,4.91-22.82.47-2.85,1-5.68,1.57-8.51.99-4.95,2.7-9.67,4.98-14.17,1.4-2.76,2.81-5.52,4.17-8.31,1.85-3.8,3.29-7.75,3.98-11.94.6-3.65.52-7.3-.08-10.94-.41-2.49-.97-4.95-1.83-7.33-.1-.27-.15-.55-.22-.83.09-.03.19-.06.28-.09Z"/>
        <g>
          <path class="cls-22" d="M116.62,872.06c-.04-1.33.34-2.55.9-3.74,1.44-3.05,3.7-5.39,6.47-7.24,6.27-4.2,13.16-5.86,20.66-4.91.68.09,1.35.24,2.09.37-.08-.13-.1-.21-.16-.26-4.36-3.13-7.75-7.17-10.66-11.63-1.88-2.87-3.31-5.98-4.72-9.11-1.33-2.96-2.82-5.84-4.23-8.76-.82-1.71-1.63-3.41-2.37-5.15-.61-1.44-.67-2.92.03-4.37.83-1.7,2.29-2.54,4.16-2.38.92.08,1.77.36,2.54.85,1.84,1.14,3.7,2.25,5.51,3.44,2.83,1.87,5.02,4.38,6.74,7.29.94,1.6,1.79,3.25,2.77,4.87-.1-.32-.21-.63-.31-.95-2.08-6.97-1.7-13.83.94-20.58.72-1.83,1.68-3.54,3.01-5,.56-.61,1.21-1.18,1.9-1.65,1.59-1.07,3.31-1.13,4.94-.16,1.43.85,2.95,1.46,4.48,2.09,1.38.57,2.75,1.29,3.91,2.21,2.43,1.92,3.54,4.56,3.55,7.65,0,.29-.02.58-.04,1.1.33-.41.53-.65.71-.91,1.64-2.25,3.51-4.28,5.72-5.98,1.64-1.26,3.44-2.2,5.53-2.47,1.57-.21,3.01-.8,4.43-1.46,1.24-.58,2.5-.61,3.76-.13,2.75,1.03,4.26,3.13,4.99,5.86.65,2.43.78,4.92.77,7.42-.02,3.81-.09,7.63-.13,11.44-.03,2.79-.48,5.51-1.25,8.18-.1.33-.17.67-.3,1.18.66-.37,1.14-.66,1.63-.92,3.19-1.68,6.49-1.99,9.95-.9,2.46.77,4.97,1.43,7.46,2.13,1.85.52,3.72,1,5.37,2.06.35.23.71.46,1.02.74,1.7,1.45,1.2,4.11-.94,4.82-.69.22-1.48.27-2.22.24-1.77-.05-3.54-.19-5.31-.3-3.84-.22-7.63.14-11.37.97-2.67.6-5.3,1.42-7.77,2.61-3.4,1.64-6.8,3.31-10.16,5.06-1.83.96-3.59,2.06-5.53,2.81-.76.29-1.53.55-2.3.78-.95.29-1.91.52-2.87.8-1.95.57-2.84,2.02-3.09,3.92-.12.92-.11,1.85-.16,2.96-.21-.34-.35-.56-.48-.79-.4-.7-.78-1.42-1.2-2.11-1.27-2.07-4.65-3.69-7.79-2.74-3.18.97-5.93,2.59-8.38,4.78-1.59,1.42-3.16,2.87-4.74,4.3-2.79,2.54-6.04,4.26-9.69,5.15-2.79.68-5.65.79-8.51.44-1.79-.22-3.58-.42-5.37-.66-.65-.09-1.31-.22-1.93-.44-1.31-.47-1.94-1.43-1.98-2.82Z"/>
          <g>
            <path class="cls-3" d="M118.59,874.88c.62.22,1.27.35,1.93.44,1.79.24,3.58.44,5.37.66,2.86.34,5.72.24,8.51-.44,3.65-.89,6.9-2.61,9.69-5.15,1.58-1.43,3.15-2.88,4.74-4.3,2.45-2.19,5.19-3.82,8.38-4.78,3.14-.95,6.52.68,7.79,2.74.42.69.8,1.41,1.2,2.11.13.23.27.45.48.79.06-1.12.04-2.05.16-2.96.25-1.9,1.14-3.34,3.09-3.92.95-.28,1.92-.51,2.87-.8.78-.23,1.55-.49,2.3-.78,1.94-.75,3.7-1.85,5.53-2.81,3.35-1.75,6.75-3.41,10.16-5.06,2.47-1.2,5.1-2.01,7.77-2.61,3.74-.83,7.53-1.19,11.37-.97,1.77.1,3.54.25,5.31.3.74.02,1.53-.02,2.22-.24,2.14-.7,2.64-3.37.94-4.82-.32-.27-.67-.51-1.02-.74-1.65-1.06-3.52-1.53-5.37-2.06-2.49-.7-4.99-1.36-7.46-2.13-3.46-1.09-6.76-.78-9.95.9-.49.26-.97.55-1.63.92.13-.51.21-.85.3-1.18.77-2.67,1.22-5.39,1.25-8.18.04-3.81.11-7.63.13-11.44,0-2.5-.12-4.99-.77-7.42-.73-2.73-2.24-4.84-4.99-5.86-1.27-.48-2.52-.45-3.76.13-1.42.66-2.86,1.26-4.43,1.46-2.09.27-3.89,1.21-5.53,2.47-2.21,1.7-4.08,3.73-5.72,5.98-.19.25-.39.5-.71.91.02-.52.04-.81.04-1.1-.02-3.09-1.13-5.73-3.55-7.65-1.16-.92-2.53-1.65-3.91-2.21-1.53-.63-3.05-1.23-4.48-2.09-1.63-.97-3.35-.91-4.94.16-.69.47-1.33,1.03-1.9,1.65-1.34,1.46-2.29,3.17-3.01,5-2.64,6.75-3.03,13.61-.94,20.58.09.32.2.63.31.95-.98-1.62-1.82-3.27-2.77-4.87-1.72-2.91-3.91-5.41-6.74-7.29-1.81-1.2-3.67-2.3-5.51-3.44-.78-.48-1.63-.77-2.54-.85-1.87-.16-3.34.68-4.16,2.38-.71,1.45-.64,2.93-.03,4.37.74,1.74,1.55,3.45,2.37,5.15,1.4,2.92,2.89,5.81,4.23,8.76,1.41,3.12,2.84,6.24,4.72,9.11,2.92,4.45,6.3,8.49,10.66,11.63.06.04.09.13.16.26-.74-.13-1.41-.29-2.09-.37-7.5-.95-14.39.72-20.66,4.91-2.77,1.85-5.03,4.19-6.47,7.24-.56,1.18-.94,2.41-.9,3.74.04,1.39.67,2.35,1.98,2.82ZM156.72,860.99c-3.27.88-6,2.7-8.49,4.91-1.55,1.38-3.07,2.79-4.61,4.17-2.4,2.16-5.18,3.66-8.24,4.66-.2.06-.4.12-.61.17-.06.01-.12,0-.21,0,.56-.47,1.12-.9,1.65-1.37,1.55-1.37,2.65-3.09,3.72-4.84.75-1.23,1.53-2.45,2.4-3.59,1.52-1.98,3.46-3.42,5.91-4.04.93-.24,1.89-.41,2.84-.44,2.06-.05,4.13.01,6.23.12-.2.09-.39.2-.59.25ZM194.89,838.71c3.16-1.62,6.41-1.8,9.78-.69,2.22.73,4.5,1.29,6.75,1.94,1.33.39,2.68.73,3.95,1.25.96.39,1.88.95,2.7,1.6,1.29,1.02.9,3.02-.64,3.65-.8.33-1.64.34-2.48.3-2.01-.11-4.01-.27-6.02-.34-5.57-.18-10.97.72-16.15,2.74-2.48.97-4.85,2.22-7.27,3.35-.43.2-.85.43-1.28.64-.03-.03-.06-.06-.09-.09.15-.14.29-.3.44-.43,3.03-2.55,5.22-5.7,6.77-9.32.2-.47.45-.93.58-1.42.41-1.61,1.59-2.47,2.96-3.18ZM172.53,812.26c.81-.85,1.68-1.63,2.58-2.39,1.86-1.58,4.01-2.47,6.42-2.85.93-.15,1.83-.55,2.74-.86.51-.18,1-.4,1.51-.6,1-.4,2-.32,2.99.06,2.41.93,3.8,2.74,4.52,5.16.74,2.51.86,5.09.84,7.67-.02,3.84-.06,7.69-.17,11.53-.19,6.31-2.14,12.1-5.47,17.43-1.12,1.79-2.55,3.35-4.19,4.69-2.47,2.02-5.09,3.82-7.97,5.23-2.42,1.19-5,1.87-7.68,2.18-.12.01-.24,0-.36.03-2.5.46-4.56-.86-5.59-3.34-1.73-4.17-2.31-8.49-2.06-12.96.38-6.98,1.91-13.69,4.76-20.07,1.79-4.01,4.1-7.69,7.14-10.89ZM146.32,829.49c-1.86-7.14-1.31-14.12,1.81-20.85.74-1.59,1.71-3.04,3.02-4.24.87-.8,1.82-1.48,3.08-1.5.97-.02,1.86.21,2.65.75,1.16.78,2.42,1.31,3.75,1.74,1.64.54,3.19,1.35,4.46,2.5,2.59,2.36,3.63,5.31,2.91,8.79-.11.55-.38,1.08-.66,1.57-5.14,8.87-7.42,18.46-7.26,28.66.03,2.26.53,4.47,1.11,6.65.09.34.22.68.33,1.02-.08.03-.15.06-.23.09-1.18-1.59-2.4-3.15-3.52-4.78-2.49-3.64-5.01-7.27-7.36-11-1.83-2.9-3.21-6.07-4.08-9.39ZM143.49,827.33c.3.51.64,1,.9,1.53,1.13,2.25,2.18,4.54,3.37,6.76,1,1.87,2.08,3.71,3.26,5.47,2.27,3.39,4.64,6.71,6.96,10.06.06.09.11.2.16.3-3.26-2.37-6.7-4.46-9.17-7.69-1.62-2.11-2.72-4.42-3.25-7.04-.61-3.03-1.16-6.08-2.29-8.97-.04-.11-.05-.23.06-.42ZM143.24,852.76c-4.08-4.02-7.41-8.58-9.84-13.79-1.23-2.64-2.43-5.3-3.68-7.92-.95-1.98-2-3.9-2.94-5.88-.7-1.46-1.37-2.94-1.91-4.47-.47-1.32-.2-2.61.59-3.78.71-1.06,1.72-1.54,2.99-1.51.93.02,1.78.29,2.56.77,1.87,1.15,3.74,2.29,5.59,3.48,1.65,1.07,3.08,2.41,4.32,3.93.47.57.8,1.27,1.09,1.95.54,1.24,1,2.51,1.64,4.12.34,1.57.78,3.5,1.17,5.44,1.47,7.26,5.03,13.11,11.43,17.07,1.51.93,3.02,1.87,4.45,2.9,1.2.86,1.85,2.1,1.95,3.61.05.81-.16,1.1-.96,1.24-.38.07-.78.08-1.17.06-6.68-.21-12.49-2.53-17.28-7.24ZM117.16,872.06c0-1.27.36-2.43.9-3.55,1.47-3.04,3.77-5.34,6.55-7.16,6.1-3.98,12.79-5.53,20.02-4.62,2.34.29,4.55,1.06,6.67,2.18-.65.09-1.3.15-1.93.27-2.16.39-4.01,1.41-5.6,2.9-1.9,1.79-3.36,3.92-4.54,6.25-.86,1.7-1.93,3.26-3.22,4.66-1.39,1.51-3.18,2.31-5.15,2.51-1.6.16-3.24.06-4.85-.06-1.83-.14-3.64-.41-5.46-.67-.65-.09-1.31-.23-1.92-.47-.98-.39-1.5-1.13-1.49-2.24Z"/>
            <g>
              <path class="cls-3" d="M206.16,844.12c-4.3,1.09-8.64,1.99-12.7,3.91-3.99,1.88-7.79,4.05-11.32,6.78-.04-.18-.08-.25-.06-.27,2.21-2.24,4.39-4.5,7.17-6.08,1.95-1.12,3.92-2.2,6.02-3,1.91-.73,3.83-1.42,5.77-2.04-1.68.69-3.39,1.32-5.05,2.07-1.72.77-3.42,1.6-5.08,2.48-1.64.86-3.19,1.87-4.56,3.18,6.12-3.73,12.71-6.1,19.81-7.01Z"/>
              <path class="cls-3" d="M157.29,859.86c-2.47-.37-4.73-1.22-6.8-2.65-3.57-2.46-6.34-5.67-8.79-9.2-1.64-2.37-3.09-4.86-4.27-7.49-.85-1.89-1.62-3.81-2.05-5.86.36.85.73,1.7,1.07,2.56,2.56,6.36,6.08,12.1,11.01,16.92,1.49,1.46,3.16,2.68,4.95,3.75,1.36.81,2.86,1.26,4.34,1.75.18.06.36.13.54.2Z"/>
              <path class="cls-3" d="M169.03,859.97c.2-.2.27-.29.36-.35,3.57-2.31,6.1-5.56,8.21-9.17,1.7-2.92,2.92-6.06,3.86-9.3.34-1.18.7-2.35,1.18-3.5-.09.44-.17.88-.28,1.31-.86,3.35-1.81,6.67-3.31,9.8-1.78,3.7-4.09,7-7.25,9.65-.77.65-1.56,1.29-2.76,1.56Z"/>
              <path class="cls-3" d="M161.39,859.86c-1.7.07-3.33-.3-4.89-.94-3.05-1.26-5.63-3.21-7.89-5.59-2.93-3.09-5.3-6.58-7.18-10.4-.1-.21-.15-.45-.27-.83.84,1.43,1.56,2.76,2.37,4.03,2.13,3.36,4.62,6.44,7.69,9,2.87,2.39,6.11,4.04,9.83,4.65.12.02.23.06.34.09Z"/>
              <path class="cls-3" d="M170.6,828.18c-2.18,8.48-3.63,17.07-3.88,25.84-.28-8.85,1.15-17.44,3.88-25.84Z"/>
              <path class="cls-3" d="M129.5,866.35c1.35-.8,2.68-1.66,4.07-2.38,3.39-1.76,6.91-3.2,10.59-4.22,2.29-.63,4.63-.95,7.02-.86.33.01.65.07.98.12.11.02.22.06.32.21-.15.02-.29.05-.44.05-2.83.01-5.6.38-8.34,1.11-2.65.71-5.17,1.72-7.65,2.87-2.19,1.02-4.35,2.09-6.53,3.14l-.03-.03Z"/>
              <path class="cls-3" d="M187.15,824.16c-.08,9.49-3.12,19.51-7.47,25.78,4.53-8.01,6.78-16.67,7.47-25.78Z"/>
              <path class="cls-3" d="M160.09,846.35c-2.81-7.35-4.33-18.43-3.89-25.18.19,2.79.28,5.59.6,8.37.33,2.85.82,5.69,1.38,8.51.55,2.79,1.26,5.54,1.91,8.31Z"/>
              <path class="cls-3" d="M159.83,852.06c-4.55-5.87-7.7-12.39-9.13-19.71,1.86,7.11,5.1,13.6,9.13,19.71Z"/>
              <path class="cls-3" d="M166.07,837.52c.35-4.66,3.64-15.59,7.66-21.55-1.06,2.31-2.21,4.58-3.16,6.93-.97,2.39-1.84,4.84-2.59,7.31-.75,2.46-1.3,4.99-1.9,7.31Z"/>
              <path class="cls-3" d="M149.58,805.82c-.76,5.47-.29,10.89.27,16.15-.47-.95-.95-4.32-1.1-8.04-.2-4.91.03-7.47.83-8.11Z"/>
              <path class="cls-3" d="M162.94,806c.35.77.65,1.59.78,2.42.66,4.21.65,8.42.1,12.64-.01.1-.05.2-.09.32,0-1.73,0-3.43-.03-5.13-.04-1.74-.04-3.48-.21-5.21-.17-1.67-.53-3.32-.81-4.98.09-.02.17-.05.26-.07Z"/>
              <path class="cls-3" d="M183.68,806.1c.05.27.13.54.15.82.2,2.48-.27,4.91-.69,7.33-.28,1.59-.71,3.15-1.2,4.69.33-2.15.71-4.29.98-6.44.26-2.12.4-4.25.59-6.37.06,0,.11-.01.17-.02Z"/>
              <path class="cls-3" d="M133.66,869.93c-2.13,1.99-8.59,5.89-10.2,5.27,1.76-.79,3.56-1.49,5.26-2.37,1.69-.88,3.3-1.93,4.94-2.9Z"/>
              <path class="cls-3" d="M128.12,862.36c3.97-2.29,8.25-3.63,12.78-4.23-4.38,1.05-8.66,2.42-12.78,4.23Z"/>
              <path class="cls-3" d="M133.89,817.75c.64,1.36.86,2.65,1.31,3.85.46,1.24.9,2.48,1.33,3.73.43,1.25.82,2.51,1.19,3.65-1.79-3.35-4.01-9.64-3.82-11.23Z"/>
              <path class="cls-3" d="M136.27,864.74c3.52-2.14,7.13-4.11,11.33-4.72-.16.08-.31.17-.47.22-1.03.34-2.08.61-3.08,1.02-1.96.81-3.9,1.69-5.84,2.55-.65.29-1.29.62-1.94.93Z"/>
              <path class="cls-3" d="M150.47,815.64c-.51-7.51-.52-9.7.04-10.99.09.28.19.45.19.61-.07,3.5-.15,7-.23,10.38Z"/>
              <path class="cls-3" d="M157.74,829.52c.33,4.52,1.54,8.86,2.25,13.28-1.11-4.35-2.32-8.69-2.41-13.23,0,0,.06-.02.16-.05Z"/>
              <path class="cls-3" d="M192.73,844.3c3.16-2.56,6.5-4.8,10.59-5.61-1.21.48-2.44.91-3.61,1.47-1.24.59-2.44,1.27-3.61,1.97-1.15.68-2.24,1.44-3.36,2.17Z"/>
              <path class="cls-3" d="M164.37,843.66c-.14-3.88.5-7.64,1.66-11.32-.7,3.75-1.43,7.5-1.66,11.32Z"/>
              <path class="cls-3" d="M158.25,857.68c-4.21-1.78-7.45-4.72-10.03-8.42,4.67,5.21,4.71,5.13,10.03,8.42Z"/>
              <path class="cls-3" d="M205.46,841.21c1.64-.97,6.5-1.7,7.45-1.06-2.53.36-5.05.72-7.45,1.06Z"/>
              <path class="cls-3" d="M184.39,813.06c.05-2.55.63-5.06.42-7.64.36.36.49.8.48,1.27-.06,2.16-.35,4.28-.9,6.38Z"/>
              <path class="cls-3" d="M117.41,869.28c.49-1.33,4.34-4.21,6-4.82-1.84,1.48-3.92,3.15-6,4.82Z"/>
              <path class="cls-3" d="M210.17,841.84c1.61-.65,3.33-.82,5.06-.95.23-.02.47.07.69.14.09.03.14.15.26.28-2.06.18-4.03.35-6.01.53Z"/>
              <path class="cls-3" d="M126.02,875.74c.55-.18,1.1-.29,1.59-.53,1.31-.64,2.6-1.33,3.91-1.98-1.38,1.15-2.84,2.16-4.59,2.69-.33.1-.69.24-.92-.18Z"/>
              <path class="cls-3" d="M137.14,824c-.55-1.61-1.11-3.22-1.65-4.83-.02-.05.09-.14.23-.32.84,1.68,1.14,3.43,1.43,5.15Z"/>
              <path class="cls-3" d="M158.76,809.93c-.22-1.86-.45-3.73-.67-5.59.07,0,.15-.02.22-.03.54,1.83.54,3.72.45,5.62Z"/>
              <path class="cls-3" d="M156.16,855.6c-1.7-1.15-3.32-2.35-4.5-4.25,1.59,1.5,3.05,2.87,4.5,4.25Z"/>
            </g>
          </g>
        </g>
        <g>
          <path class="cls-22" d="M155.78,921.19c.39-.69.81-1.37,1.26-2.03.84-1.25,1.62-2.53,2.35-3.84,2.34-4.19,5.17-7.97,8.94-10.99,2.98-2.39,6.18-4.45,9.58-6.19,2.11-1.08,4.22-2.15,6.37-3.15,1.47-.69,2.97-1.32,4.49-1.86,4.2-1.48,8.42-2.88,12.64-4.32,3.42-1.17,6.84-2.32,10.24-3.52,2.29-.81,4.56-1.72,6.84-2.55.43-.16.91-.17,1.29-.23.44.51.24.86-.03,1.15-.45.48-.92.95-1.43,1.36-2.75,2.2-5.7,4.09-8.74,5.85-3.14,1.82-6.29,3.61-9.5,5.3-2.07,1.08-4.24,1.97-6.39,2.91-4.64,2.02-9.46,3.54-14.22,5.22-4.62,1.62-9.12,3.54-13.16,6.39-4.04,2.86-7.31,6.26-9.75,10.26l-.78.25Z"/>
          <path class="cls-3" d="M152.49,930.64c.15-.43.26-.73.35-1.03.87-3.16,2.12-6.04,3.73-8.67,2.44-4,5.71-7.4,9.75-10.26,4.04-2.86,8.54-4.77,13.16-6.39,4.76-1.68,9.58-3.2,14.22-5.22,2.14-.93,4.32-1.82,6.39-2.91,3.21-1.68,6.37-3.48,9.5-5.3,3.04-1.76,5.99-3.65,8.74-5.85.51-.41.98-.88,1.43-1.36.27-.29.48-.64.03-1.15-.38.07-.87.08-1.29.23-2.29.83-4.55,1.74-6.84,2.55-3.4,1.2-6.82,2.35-10.24,3.52-4.21,1.44-8.44,2.85-12.64,4.32-1.53.54-3.02,1.17-4.49,1.86-2.14,1-4.26,2.07-6.37,3.15-3.4,1.74-6.6,3.8-9.58,6.19-3.77,3.02-6.6,6.8-8.94,10.99-.73,1.31-1.51,2.6-2.35,3.84-.45.66-.87,1.34-1.26,2.03-1.49,2.6-2.59,5.37-3.34,8.31-.08.32-.28.65.04,1.14ZM160.61,914.12c3.11-5.18,7.29-9.28,12.37-12.51,3.07-1.95,6.26-3.66,9.54-5.21,2.72-1.28,5.47-2.48,8.31-3.45,4.24-1.44,8.49-2.87,12.73-4.32,2.76-.94,5.52-1.89,8.27-2.87,2.18-.78,4.33-1.63,6.49-2.45.3-.11.62-.2.93-.3.05.06.1.11.14.17-.21.26-.38.56-.63.76-1.3,1.02-2.58,2.06-3.94,2.99-4.07,2.77-8.3,5.28-12.67,7.54-2.58,1.34-5.19,2.62-7.84,3.81-2.05.92-4.17,1.69-6.29,2.46-3.14,1.13-6.33,2.14-9.45,3.31-2.38.9-4.7,1.98-7.05,2.97-.11.04-.23.06-.41-.03.79-.5,1.54-1.05,2.36-1.5,2.99-1.65,5.97-3.31,9.01-4.87,2.4-1.23,4.85-2.35,7.31-3.48,1.44-.66,2.93-1.23,4.39-1.85,1.57-.67,3.13-1.37,4.7-2.05,1.43-.62,2.87-1.22,4.28-1.9-.7.23-1.42.43-2.11.69-1.54.59-3.07,1.2-4.6,1.84-1.61.67-3.2,1.38-4.79,2.07-1.27.55-2.54,1.08-3.8,1.64-1.59.71-3.2,1.37-4.74,2.17-2.67,1.36-5.32,2.76-7.93,4.23-5.19,2.93-10.01,6.39-14.34,10.5-.11.1-.22.2-.34.29-.04.03-.11,0-.4,0,.21-.27.38-.44.49-.63Z"/>
        </g>
      </g>
      <g>
        <g>
          <path class="cls-22" d="M226.36,222.97c-.63.21-1.24.08-1.76-.3-3.25-2.34-6.04-5.1-7.71-8.82-.21-.46-.38-.94-.6-1.5-.32.37-.55.68-.82.95-.89.88-1.99,1.2-3.21,1.06-1.61-.19-3.11-.69-4.42-1.65-.94-.69-1.85-1.42-2.78-2.13-.44-.33-.88-.65-1.43-1.05-.1.32-.2.54-.24.77-.86,4.75-2.92,8.99-5.61,12.95-.77,1.13-1.66,2.15-2.79,2.96-.77.55-1.61.83-2.5,1.01-1.69.34-3.07-.15-4.13-1.53-.16-.21-.34-.4-.48-.61-.98-1.45-2.26-2.57-3.76-3.46-1.53-.92-3.06-1.82-4.42-3.01-3.19-2.79-4.75-6.32-5.02-10.49-.15-2.28-.04-4.54.36-6.79.1-.54.18-1.08.27-1.62-.07-.03-.13-.05-.2-.08-.36.45-.73.91-1.08,1.36-2.66,3.36-5.89,6-9.84,7.74-3.03,1.34-6.02,2.75-9.06,4.07-1.52.66-3.07,1.27-4.73,1.43-.87.08-1.76.14-2.62.03-3.49-.43-5.2-2.19-5.84-5.42-.48-2.39-.34-4.69.58-6.97,1.21-2.98,2.46-5.94,4.54-8.46.03-.04.03-.11.07-.26-.33,0-.65-.02-.96,0-2.36.19-4.71.41-7.07.59-1.2.09-2.4.21-3.59.16-.99-.04-2.01-.18-2.95-.48-1.35-.43-1.98-1.55-1.83-2.96.12-1.25.7-2.32,1.59-3.15,1.27-1.19,2.58-2.38,4-3.38,3.39-2.39,6.86-4.68,9.86-7.57,1.63-1.57,3.18-3.23,4.77-4.85.16-.16.28-.34.34-.61-.22.16-.45.31-.65.49-1.82,1.67-3.72,3.23-5.81,4.54-1.09.69-2.25,1.31-3.45,1.79-2.2.86-4.44,1.63-6.69,2.36-.63.2-1.35.22-2.02.17-1.67-.12-2.55-1.25-2.36-2.91.14-1.15.64-2.18,1.23-3.15,1.08-1.79,2.45-3.34,3.96-4.78,2.47-2.35,5.17-4.41,8.03-6.27,3.4-2.22,6.93-4.22,10.62-5.9,6.29-2.85,12.77-5.09,19.69-5.8,1.45-.15,2.91-.12,4.37-.18.78-.03,1.55-.1,2.33-.12,1.81-.04,3.63-.04,5.44-.09,2.78-.07,5.04-1.09,6.42-3.64.05-.1.18-.15.35-.3.06.23.14.38.13.52-.2,1.57.6,2.82,1.31,4.09,1.24,2.22,3.02,4.03,4.54,6.05,2.36,3.12,5.4,5.59,7.92,8.54,2.92,3.43,5.64,7.01,8.11,10.78,3.59,5.47,6.65,11.23,9.25,17.21,2.61,5.98,4.75,12.13,5.55,18.66.23,1.87.31,3.75-.03,5.62-.13.73-.34,1.46-.6,2.15-.46,1.17-1.39,1.85-2.55,2.24Z"/>
          <g>
            <path class="cls-3" d="M228.91,220.73c.27-.69.47-1.42.6-2.15.34-1.87.26-3.75.03-5.62-.8-6.53-2.94-12.68-5.55-18.66-2.61-5.98-5.66-11.74-9.25-17.21-2.47-3.77-5.19-7.35-8.11-10.78-2.52-2.96-5.56-5.42-7.92-8.54-1.52-2.01-3.3-3.82-4.54-6.05-.71-1.27-1.51-2.52-1.31-4.09.02-.14-.06-.28-.13-.52-.17.15-.3.2-.35.3-1.38,2.55-3.64,3.57-6.42,3.64-1.81.05-3.63.05-5.44.09-.78.02-1.55.08-2.33.12-1.46.06-2.92.03-4.37.18-6.92.71-13.4,2.95-19.69,5.8-3.7,1.68-7.22,3.68-10.62,5.9-2.86,1.86-5.56,3.92-8.03,6.27-1.51,1.43-2.88,2.99-3.96,4.78-.59.98-1.09,2-1.23,3.15-.2,1.67.68,2.8,2.36,2.91.67.05,1.39.03,2.02-.17,2.25-.73,4.49-1.49,6.69-2.36,1.2-.47,2.35-1.1,3.45-1.79,2.09-1.31,3.99-2.87,5.81-4.54.2-.18.43-.33.65-.49-.06.26-.18.45-.34.61-1.59,1.62-3.14,3.28-4.77,4.85-3,2.89-6.47,5.18-9.86,7.57-1.42,1-2.72,2.19-4,3.38-.89.83-1.47,1.9-1.59,3.15-.14,1.42.48,2.54,1.83,2.96.94.3,1.96.44,2.95.48,1.19.05,2.4-.07,3.59-.16,2.36-.18,4.72-.4,7.07-.59.31-.03.63,0,.96,0-.04.14-.03.22-.07.26-2.08,2.52-3.32,5.47-4.54,8.46-.93,2.28-1.06,4.58-.58,6.97.65,3.24,2.36,4.99,5.84,5.42.86.11,1.75.05,2.62-.03,1.67-.16,3.22-.77,4.73-1.43,3.04-1.32,6.03-2.73,9.06-4.07,3.94-1.74,7.17-4.38,9.84-7.74.36-.46.72-.91,1.08-1.36.07.03.13.05.2.08-.09.54-.18,1.08-.27,1.62-.4,2.25-.51,4.51-.36,6.79.27,4.17,1.83,7.7,5.02,10.49,1.36,1.19,2.89,2.09,4.42,3.01,1.5.9,2.78,2.01,3.76,3.46.14.21.32.4.48.61,1.05,1.38,2.44,1.87,4.13,1.53.89-.18,1.73-.46,2.5-1.01,1.13-.81,2.02-1.83,2.79-2.96,2.69-3.96,4.75-8.2,5.61-12.95.04-.23.14-.45.24-.77.54.4.99.72,1.43,1.05.93.71,1.84,1.44,2.78,2.13,1.32.95,2.82,1.46,4.42,1.65,1.22.14,2.32-.18,3.21-1.06.27-.27.5-.58.82-.95.22.55.39,1.03.6,1.5,1.67,3.72,4.46,6.48,7.71,8.82.52.38,1.13.51,1.76.3,1.16-.39,2.09-1.07,2.55-2.24ZM144.42,175.61c-1.3.83-2.74,1.49-4.19,2.06-1.84.72-3.73,1.3-5.62,1.86-.63.19-1.35.21-2.02.15-1.29-.12-1.89-.91-1.76-2.2.11-1.09.58-2.05,1.14-2.98,1.17-1.93,2.67-3.58,4.32-5.11,2.74-2.54,5.75-4.72,8.92-6.7,4.08-2.55,8.35-4.74,12.81-6.53,5.34-2.15,10.83-3.75,16.59-4.31.38-.04.77-.04,1.15-.06-5.43,1.97-9.91,5.3-14.26,8.87-3.79,3.11-7.16,6.65-10.77,9.95-1.99,1.82-4.05,3.54-6.32,4.99ZM139.87,193.05c-1.41.17-2.85.25-4.27.25-.9,0-1.82-.12-2.68-.37-1.36-.38-1.84-1.31-1.57-2.7.22-1.13.84-2.05,1.65-2.81.96-.91,1.97-1.78,3.04-2.57,2.29-1.69,4.67-3.28,6.95-4.99,2.94-2.21,5.53-4.8,8.01-7.5,2.32-2.53,4.61-5.1,7-7.57,3.72-3.83,7.89-7.12,12.49-9.84,5.17-3.05,10.73-3.9,16.6-2.8.22.04.44.1.66.16,1.63.48,2.51,1.65,2.33,3.34-.14,1.29-.39,2.57-.74,3.82-2.7,9.73-7.71,18.03-15.42,24.62-2.25,1.92-4.69,3.58-7.35,4.87-4.46,2.12-9.13,3.25-14.09,3.3-4.21.04-8.43.26-12.62.77ZM162.28,209.03c-2.04.83-4.01,1.84-6.05,2.68-1.68.69-3.39,1.29-5.13,1.81-1.19.35-2.44.33-3.67.12-2.78-.48-4.29-1.99-4.86-4.73-.51-2.49-.38-4.88.62-7.25.88-2.1,1.79-4.17,3.03-6.09.23-.35.49-.69.72-1.04.7-1.1,1.65-1.6,3-1.6,2.17,0,4.34-.17,6.51-.31,2.42-.15,4.71-.85,6.97-1.69.76-.28,1.52-.55,2.27-.87,5-2.16,9.17-5.48,12.79-9.49,1.65-1.82,3.09-3.83,4.62-5.76.14-.17.26-.35.38-.53.06.03.11.07.17.1-.7,1.95-.79,4-1.02,6.03-.48,4.27-1.71,8.33-3.79,12.1-1.11,2.01-2.33,3.97-3.6,5.89-3.22,4.87-7.53,8.43-12.96,10.63ZM202.8,210.11c-.94,5.08-3.16,9.59-6.21,13.71-.82,1.11-1.83,2-3.15,2.51-2.05.8-3.51.49-4.79-1.3-1.42-1.98-3.21-3.46-5.31-4.61-1.4-.77-2.65-1.73-3.82-2.83-2.37-2.24-3.66-5-4.09-8.18-.49-3.65-.09-7.25.62-10.83.09-.43.35-.83.6-1.21,1.62-2.52,3.14-5.08,4.21-7.89.55-1.45.97-2.96,1.45-4.44.08-.26.16-.52.24-.78.05,0,.1,0,.15.01.03.25.08.49.1.74.24,2.99.84,5.9,1.78,8.74.87,2.61,2.12,5,3.96,7.08,2.04,2.31,4.62,3.75,7.45,4.79,2.11.78,4.13,1.73,6.05,2.9.3.18.59.38.91.58-.05.37-.08.69-.14,1.01ZM207.68,211.82c-1.09-.82-2.14-1.7-3.24-2.48-2.41-1.72-5.01-3.1-7.79-4.15-1.12-.42-2.22-.91-3.3-1.45-3.07-1.53-5.28-3.93-6.81-6.97-.97-1.92-1.71-3.91-2.07-6.06.65,1.32,1.49,2.49,2.55,3.51,1.95,1.88,4.22,3.22,6.77,4.1.67.23,1.35.45,2.02.71,3.27,1.27,5.87,3.39,7.87,6.26,1.3,1.86,2.61,3.71,3.96,5.53.49.66,1.12,1.22,1.68,1.82-.04.06-.08.11-.13.16-.5-.33-1.03-.63-1.51-.99ZM212.17,213.62c-.61-.19-1.2-.51-1.72-.87-1.51-1.05-2.63-2.48-3.67-3.98-1.53-2.21-3-4.47-4.68-6.56-1.04-1.3-2.35-2.42-3.68-3.44-.93-.72-2.06-1.22-3.16-1.67-1.56-.64-3.19-1.11-4.76-1.73-1.84-.73-3.49-1.8-4.61-3.45-.7-1.03-1.2-2.22-1.68-3.38-1.08-2.62-.93-5.4-.9-8.15.03-3.2.83-6.21,2.12-9.13,1.26-2.85,2.45-5.72,3.59-8.62.87-2.21,1.38-4.53,1.74-6.88.09-.61.16-1.23.75-1.64.8-.15,1.52.14,2.22.49,2.33,1.14,4.13,2.9,5.67,4.93,2.56,3.4,4.39,7.2,5.87,11.16,2.66,7.15,4.54,14.53,6.44,21.9,1.1,4.27,2.31,8.5,3.43,12.76.36,1.38.65,2.78.87,4.18.16,1.01-.02,2.01-.62,2.88-.76,1.12-1.93,1.59-3.22,1.19ZM224.28,221.77c-.67-.56-1.35-1.11-2.04-1.65-1.41-1.08-2.47-2.48-3.43-3.93-.86-1.3-1.65-2.65-2.05-4.17-.06-.25-.17-.51-.14-.75.24-1.92-.26-3.74-.74-5.55-1.84-6.99-3.64-13.98-5.58-20.94-1.31-4.68-2.74-9.32-4.28-13.93-.91-2.73-2.11-5.37-3.63-7.85-.08-.14-.14-.29-.21-.43.06-.04.11-.09.17-.13.88.94,1.78,1.86,2.65,2.81,3.41,3.74,6.45,7.76,9.23,11.99,3.66,5.57,6.77,11.45,9.42,17.55,2.47,5.68,4.49,11.53,5.31,17.72.26,1.97.39,3.94.05,5.91-.12.7-.3,1.4-.57,2.05-.19.46-.51.91-.88,1.26-1.15,1.07-2.07,1.05-3.27.04Z"/>
            <g>
              <path class="cls-3" d="M154.2,174.12c.46-.52.93-1.03,1.39-1.55,3.4-3.83,7.05-7.4,11.01-10.65,3.44-2.81,7.06-5.35,11.12-7.23,3.26-1.51,6.6-2.27,10.34-1.65-.43.04-.72.08-1,.1-.29.02-.58.03-.87.01-2.55-.12-4.92.59-7.23,1.58-5.67,2.42-10.47,6.14-15.08,10.14-3.2,2.79-6.13,5.85-9.11,8.87-.15.16-.32.3-.48.45-.03-.03-.06-.06-.09-.09Z"/>
              <path class="cls-3" d="M206.71,201.35c.22-5.45.54-10.9.34-16.35-.2-5.47-1.11-10.84-2.41-16.15.1-.02.2-.04.3-.07.27.97.57,1.93.82,2.9,1.64,6.42,2.06,12.96,1.76,19.55-.15,3.23-.48,6.45-.73,9.68-.01.15-.05.3-.08.44Z"/>
              <path class="cls-3" d="M193.87,154.34c.25.22.52.42.76.66,1.92,1.94,3.24,4.23,4.17,6.81,1.25,3.46,2.16,6.98,2.45,10.64.27,3.36.41,6.72.13,10.09-.01.13-.02.25-.03.38-.04,0-.07,0-.11,0-.02-.18-.05-.36-.05-.53-.11-2.91-.13-5.83-.33-8.73-.28-4.05-1.24-7.96-2.63-11.79-.89-2.46-2.23-4.58-3.88-6.55-.22-.26-.42-.54-.63-.82.05-.05.1-.11.16-.16Z"/>
              <path class="cls-3" d="M219.87,202.57c-.56-2.29-1.06-4.6-1.68-6.87-1.01-3.75-1.98-7.51-3.16-11.2-1.26-3.93-2.98-7.68-5.08-11.24-1.12-1.9-2.26-3.78-3.38-5.67-.1-.16-.17-.34-.14-.59.65.92,1.33,1.82,1.93,2.77,2.02,3.22,3.77,6.59,5.26,10.08,1,2.35,1.86,4.77,2.56,7.23,1.16,4.1,2.15,8.26,3.2,12.4.26,1.03.43,2.08.64,3.13-.05-.01-.1-.02-.15-.03Z"/>
              <path class="cls-3" d="M172.49,195.29c1.37-2.3,2.78-4.58,4.11-6.9,1.36-2.36,2.73-4.72,3.94-7.16,1.19-2.4,2.19-4.89,3.31-7.43.31.47.11.84-.01,1.16-.81,2.05-1.54,4.14-2.52,6.11-2.35,4.7-5.02,9.22-8.11,13.48-.2.27-.42.54-.62.8-.03-.02-.06-.04-.09-.07Z"/>
              <path class="cls-3" d="M197.17,161.11c3.01,9.24,2.81,18.42.98,27.66.02-.27.04-.54.06-.81.28-3.81.7-7.62.79-11.44.12-4.97-.56-9.87-1.87-14.67-.03-.12-.05-.25-.06-.38,0-.06.03-.12.1-.36Z"/>
              <path class="cls-3" d="M181.33,209.91c.58-3.32,1.22-6.63,1.73-9.95.3-1.95.49-3.92.57-5.89.06-1.48-.14-2.96-.21-4.44-.02-.35-.01-.71.08-1.07.53,1.04.69,2.14.75,3.26.14,2.63-.1,5.25-.58,7.83-.62,3.28-1.35,6.53-2.03,9.8-.04.18-.1.36-.16.54-.05-.02-.1-.04-.15-.07Z"/>
              <path class="cls-3" d="M144.58,192.98c.22-.37.4-.78.68-1.1,2.2-2.55,4.34-5.16,6.64-7.62,1.85-1.98,3.91-3.76,5.88-5.63.07-.06.17-.08.18-.18-4.39,4.88-8.79,9.77-13.18,14.65-.07-.04-.14-.08-.2-.12Z"/>
              <path class="cls-3" d="M154.79,203.78c4.23-6.17,9.54-11.33,15.24-16.12-5.31,5.15-10.5,10.42-15.24,16.12Z"/>
              <path class="cls-3" d="M183.68,160.12c-4.51,5.91-9.14,11.72-14.81,16.6,2.49-2.74,5.02-5.44,7.45-8.22,2.45-2.8,4.8-5.68,7.2-8.52.05.05.11.09.16.14Z"/>
              <path class="cls-3" d="M188.78,191.79c1.36-7.32,3.24-14.51,3.43-21.99.07,0,.13,0,.2,0,.02.24.04.48.05.72.01,3.61-.36,7.18-1.13,10.7-.67,3.07-1.42,6.12-2.14,9.18-.11.47-.27.92-.4,1.39Z"/>
              <path class="cls-3" d="M142.28,167.48c2.3-2.88,11.84-10.34,21.66-14.06-2.49,1.3-5.1,2.53-7.57,3.99-2.53,1.49-4.99,3.12-7.37,4.84-2.35,1.69-4.58,3.56-6.71,5.24Z"/>
              <path class="cls-3" d="M173.03,178.61c-2.01,3.17-11.32,12.55-14.16,13.56,2.52-2.27,4.95-4.36,7.26-6.58,2.32-2.23,4.53-4.58,6.9-6.98Z"/>
              <path class="cls-3" d="M190.42,153.86c0,.3.08.61.01.89-.26,1.03-.47,2.09-.87,3.07-1.13,2.76-2.92,5.12-4.67,7.49-.98,1.32-2.01,2.59-3.02,3.88-.06-.04-.12-.08-.17-.13.17-.25.34-.5.51-.75,1.51-2.15,3.07-4.26,4.51-6.45,1.55-2.37,2.96-4.82,3.37-7.69.02-.11.1-.22.15-.33.06,0,.12,0,.18.01Z"/>
              <path class="cls-3" d="M167.14,199.23c-1.27,3.15-8.22,11.81-10,12.52-.02-.03-.04-.05-.05-.08-.01-.03-.02-.06-.02-.09,0-.03,0-.08.02-.09,3.79-3.73,6.73-8.15,10.06-12.26Z"/>
              <path class="cls-3" d="M172.74,152.54c-3.67,1.2-7.25,2.57-10.55,4.62-3.24,2.01-6.3,4.26-9.3,6.91,2.76-4.15,14.38-10.86,19.85-11.53Z"/>
              <path class="cls-3" d="M147.11,167.54c-.77.77-1.51,1.48-2.23,2.23-.74.77-1.46,1.56-2.18,2.35-.7.77-1.39,1.54-2.07,2.32-.7.81-1.36,1.65-2.06,2.46-.66.76-1.11,1.72-2,2.36-.26-.48.04-.72.22-.94,1.45-1.79,2.87-3.59,4.39-5.32,1.7-1.95,3.61-3.7,5.64-5.32.07-.06.17-.09.29-.14Z"/>
              <path class="cls-3" d="M187.83,152.29c-3.13.1-6.2.34-9.22,1.28-3,.94-5.71,2.41-8.4,3.98,2.44-2.06,5.25-3.44,8.26-4.43,3.05-1,6.19-1.22,9.36-.83Z"/>
              <path class="cls-3" d="M142.42,209.62c-.12-.35-.21-.49-.19-.62.04-.22.13-.44.23-.64,1.67-3.35,3.7-6.44,6.28-9.16-2.3,3.28-4.46,6.64-6.32,10.42Z"/>
              <path class="cls-3" d="M187.07,223.89c.62-3.52,1.23-7.03,1.89-10.75.16,3.43-.89,9.9-1.89,10.75Z"/>
              <path class="cls-3" d="M189.13,182.82c-.75,3.51-1.49,7.02-2.24,10.53-.06,0-.12,0-.18.01-.06-.15-.19-.31-.17-.46.05-.51.11-1.03.23-1.53.61-2.55,1.24-5.1,1.87-7.64.08-.33.2-.65.3-.97.06.02.12.04.18.06Z"/>
              <path class="cls-3" d="M220.05,194.74c-1.55-4.99-2.99-10.02-5.18-14.79,2.58,4.63,3.91,9.7,5.18,14.79Z"/>
              <path class="cls-3" d="M147.76,186.3c-1.72,2.23-3.35,4.51-5.11,6.7-.1-.06-.19-.12-.29-.19.11-.24.18-.5.33-.71,1.5-2.1,3.14-4.08,5.07-5.81Z"/>
              <path class="cls-3" d="M196.83,205.74c.09.18.24.36.25.54.09,2.61-.13,5.2-.76,7.76.1-2.75.2-5.51.3-8.26.07-.01.14-.02.22-.04Z"/>
              <path class="cls-3" d="M223.46,221c-.2-3.35-.41-6.69-.61-10.01.67,1.33,1.12,8.84.61,10.01Z"/>
              <path class="cls-3" d="M138.74,178.59c-.15-.84,3.2-4.78,5.02-6.1-1.67,2.03-3.35,4.07-5.02,6.1Z"/>
              <path class="cls-3" d="M165.73,204.58c-1.48,1.96-2.93,3.95-4.92,5.43-.06-.06-.13-.12-.19-.18,1.65-1.79,3.3-3.57,4.95-5.36.05.04.11.07.16.11Z"/>
              <path class="cls-3" d="M188.25,225.06c.39-2.11.87-4.21,1.41-6.29-.04,2.18-.3,4.31-1.02,6.36-.13-.02-.26-.05-.38-.07Z"/>
              <path class="cls-3" d="M198.21,206.04c.42.95.28,3.33-.23,4.7-.18-1.06-.06-4.03.23-4.7Z"/>
            </g>
          </g>
        </g>
        <path class="cls-3" d="M184.8,50.17c.1.51.3,1.02.28,1.53-.17,3.89-.31,7.78-.62,11.66-.56,7.02-1.26,14.02-1.47,21.06-.18,6.01.1,11.99,1.38,17.89.67,3.08,1.5,6.1,2.67,9.03,1.29,3.22,2.65,6.41,3.97,9.62,1.39,3.39,2.58,6.85,3.22,10.48.53,2.96.58,5.93.17,8.91-.43,3.15-1.27,6.21-2.1,9.48-.15-.31-.28-.46-.27-.59.06-.45.16-.89.25-1.34.51-2.41,1.11-4.81,1.52-7.24.73-4.33.27-8.59-.93-12.79-.8-2.81-1.87-5.52-3.02-8.21-1.47-3.46-2.92-6.94-4.15-10.49-2.34-6.77-3.29-13.78-3.3-20.93,0-6.59.51-13.16,1.08-19.72.52-6.01,1.13-12.02,1.07-18.06,0-.09.04-.18.06-.27.06,0,.11-.02.17-.03Z"/>
      </g>
      <g>
        <path d="M357.05,20.8c.98,3.03,1.53,6.15,1.82,9.32.27,2.98.47,5.96.81,8.93.21,1.8.56,3.6,1,5.36.73,2.96,1.61,5.89,2.34,8.85.33,1.33.44,2.72.66,4.08.03.22.09.43.21.64.26-.86.08-1.72-.05-2.55-.41-2.67-1.15-5.27-1.87-7.88-.62-2.26-1.22-4.55-1.55-6.86-.45-3.16-.59-6.36-.94-9.54-.35-3.21-.71-6.42-1.71-9.52-.1-.31-.14-.63-.21-.94-.17.04-.35.07-.52.11Z"/>
        <g>
          <path class="cls-24" d="M447.9,88.94c-2.58-6.77-6.89-12.31-12.21-17.12-5.55-5.02-11.82-8.9-18.75-11.73-5.29-2.16-10.85-2.99-16.53-3.04-3.32-.03-6.61.33-9.91.74-3.06.38-6.03,1.14-8.78,2.47-1.56.75-3.22,1.04-4.79,1.66-.52.2-1.05.37-1.56.59-2.18.92-4.34.91-6.46-.15-1.8-.9-2.94-2.4-3.72-4.19-.54-1.24-.99-2.51-1.48-3.76-.06-.15-.13-.29-.2-.44-.06,0-.13.01-.19.01-.02.26-.06.53-.05.79,0,.79.07,1.58.04,2.37-.11,2.61-1.39,4.62-3.35,6.25-1.83,1.52-4,2.33-6.29,2.8-.65.13-1.34.05-2.02.03-3.26-.08-6.43.41-9.52,1.46-10.91,3.69-19.5,10.55-26.46,19.55-6.31,8.15-10.74,17.24-13.01,27.33-.84,3.74-1.25,7.53-1.09,11.36.08,1.85.29,3.7,1.23,5.36.3.53.66,1.05,1.09,1.48,1.18,1.17,2.71,1.26,3.95.16.71-.64,1.37-1.39,1.85-2.22.72-1.24,1.36-2.55,1.87-3.89.77-2.02,1.69-3.91,2.99-5.66.97-1.31,1.63-2.85,2.36-4.32.58-1.18,1.06-2.41,1.75-3.57-.03.28-.06.55-.1.83-.43,2.7-.73,5.41-.62,8.15.13,3.23.64,6.38,2.21,9.26.47.86,1.1,1.67,1.8,2.36,1.39,1.38,3.08,1.54,4.8.7.99-.48,1.92-1.13,2.79-1.83,1.44-1.16,2.81-2.41,4.2-3.63,1.59-1.39,2.86-3.03,3.86-4.89.2-.38.42-.75.73-1.3.12,1.23.23,2.24.32,3.26.15,1.8.57,3.53,1.09,5.25,1.28,4.19,3.43,7.9,6.17,11.29,3.35,4.14,7.6,6.87,12.86,7.94,1.71.35,3.42.42,5.16.1,1.64-.31,3.08-1.04,4.28-2.13,1.3-1.18,2.52-2.47,3.68-3.78,1.03-1.17,1.94-2.44,2.9-3.66.73-.94,1.23-2,1.6-3.12,1.02-3.11,1.91-6.24,1.86-9.55,0-.08.04-.17.07-.29,1.21.14,2.42.37,3.63.39,1.22.02,2.45-.15,3.76-.25.18.25.41.55.62.86,1.55,2.31,3.34,4.4,5.65,5.99.77.53,1.59,1.01,2.45,1.38,1.65.7,3.33,1.32,5.01,1.95,1.72.65,3.5,1.01,5.34.98,2.22-.04,4.28-.65,6.2-1.76,4.38-2.51,7.41-6.17,9.23-10.87,1.63-4.22,2.26-8.61,2.17-13.12-.02-.87-.02-1.74-.03-2.65.18.04.28.03.33.08,1.54,1.27,3.09,2.53,4.6,3.84,1.09.94,2.1,1.98,3.18,2.92,1.16,1.02,2.52,1.73,4.02,2.12,2.77.73,5.07-.49,6-3.2.76-2.2.92-4.49.74-6.78-.14-1.78-.38-3.57-.73-5.32-1.27-6.39-3.79-12.26-7.56-17.58-1.77-2.5-3.66-4.89-5.72-7.15-.21-.23-.41-.47-.55-.83.19.1.38.18.56.29,2.03,1.29,4.05,2.61,6.1,3.89,1.47.91,2.69,2.07,3.72,3.45,1.69,2.26,3.4,4.5,5.14,6.71.95,1.21,2.08,2.24,3.41,3.03.33.19.67.38,1.02.51.99.35,1.78.03,2.12-.96.22-.65.32-1.38.32-2.07,0-1.78-.49-3.48-1.12-5.14Z"/>
          <g>
            <path class="cls-7" d="M447.9,88.94c-2.58-6.77-6.89-12.31-12.21-17.12-5.55-5.02-11.82-8.9-18.75-11.73-5.29-2.16-10.85-2.99-16.53-3.04-3.32-.03-6.61.33-9.91.74-3.06.38-6.03,1.14-8.78,2.47-1.56.75-3.22,1.04-4.79,1.66-.52.2-1.05.37-1.56.59-2.18.92-4.34.91-6.46-.15-1.8-.9-2.94-2.4-3.72-4.19-.54-1.24-.99-2.51-1.48-3.76-.06-.15-.13-.29-.2-.44-.06,0-.13.01-.19.01-.02.26-.06.53-.05.79,0,.79.07,1.58.04,2.37-.11,2.61-1.39,4.62-3.35,6.25-1.83,1.52-4,2.33-6.29,2.8-.65.13-1.34.05-2.02.03-3.26-.08-6.43.41-9.52,1.46-10.91,3.69-19.5,10.55-26.46,19.55-6.31,8.15-10.74,17.24-13.01,27.33-.84,3.74-1.25,7.53-1.09,11.36.08,1.85.29,3.7,1.23,5.36.3.53.66,1.05,1.09,1.48,1.18,1.17,2.71,1.26,3.95.16.71-.64,1.37-1.39,1.85-2.22.72-1.24,1.36-2.55,1.87-3.89.77-2.02,1.69-3.91,2.99-5.66.97-1.31,1.63-2.85,2.36-4.32.58-1.18,1.06-2.41,1.75-3.57-.03.28-.06.55-.1.83-.43,2.7-.73,5.41-.62,8.15.13,3.23.64,6.38,2.21,9.26.47.86,1.1,1.67,1.8,2.36,1.39,1.38,3.08,1.54,4.8.7.99-.48,1.92-1.13,2.79-1.83,1.44-1.16,2.81-2.41,4.2-3.63,1.59-1.39,2.86-3.03,3.86-4.89.2-.38.42-.75.73-1.3.12,1.23.23,2.24.32,3.26.15,1.8.57,3.53,1.09,5.25,1.28,4.19,3.43,7.9,6.17,11.29,3.35,4.14,7.6,6.87,12.86,7.94,1.71.35,3.42.42,5.16.1,1.64-.31,3.08-1.04,4.28-2.13,1.3-1.18,2.52-2.47,3.68-3.78,1.03-1.17,1.94-2.44,2.9-3.66.73-.94,1.23-2,1.6-3.12,1.02-3.11,1.91-6.24,1.86-9.55,0-.08.04-.17.07-.29,1.21.14,2.42.37,3.63.39,1.22.02,2.45-.15,3.76-.25.18.25.41.55.62.86,1.55,2.31,3.34,4.4,5.65,5.99.77.53,1.59,1.01,2.45,1.38,1.65.7,3.33,1.32,5.01,1.95,1.72.65,3.5,1.01,5.34.98,2.22-.04,4.28-.65,6.2-1.76,4.38-2.51,7.41-6.17,9.23-10.87,1.63-4.22,2.26-8.61,2.17-13.12-.02-.87-.02-1.74-.03-2.65.18.04.28.03.33.08,1.54,1.27,3.09,2.53,4.6,3.84,1.09.94,2.1,1.98,3.18,2.92,1.16,1.02,2.52,1.73,4.02,2.12,2.77.73,5.07-.49,6-3.2.76-2.2.92-4.49.74-6.78-.14-1.78-.38-3.57-.73-5.32-1.27-6.39-3.79-12.26-7.56-17.58-1.77-2.5-3.66-4.89-5.72-7.15-.21-.23-.41-.47-.55-.83.19.1.38.18.56.29,2.03,1.29,4.05,2.61,6.1,3.89,1.47.91,2.69,2.07,3.72,3.45,1.69,2.26,3.4,4.5,5.14,6.71.95,1.21,2.08,2.24,3.41,3.03.33.19.67.38,1.02.51.99.35,1.78.03,2.12-.96.22-.65.32-1.38.32-2.07,0-1.78-.49-3.48-1.12-5.14ZM386.24,128.13c.25-.09.38-.14.52-.18,1.48-.4,2.88-.99,4.22-1.74,3.53-1.97,6-4.99,7.95-8.42,2.17-3.81,3.42-8,4.21-12.29.72-3.89.73-7.82.13-11.74-.04-.29-.05-.59-.07-.89.63.82,1.07,1.68,1.6,2.48,1.36,2.08,3.04,3.88,4.85,5.57,3.29,3.08,6.85,5.82,10.53,8.42.55.39,1.08.8,1.68,1.25.02,1.43.07,2.86.05,4.3-.03,4.45-.8,8.77-2.61,12.86-1.89,4.28-4.88,7.58-9.02,9.8-1.68.91-3.47,1.39-5.39,1.45-2,.06-3.9-.39-5.75-1.11-1.2-.47-2.4-.98-3.62-1.4-1.58-.55-2.97-1.38-4.27-2.43-1.89-1.53-3.41-3.4-4.74-5.42-.09-.14-.16-.3-.28-.54ZM338.88,124.75c-.21-1.62-.19-3.23.89-4.61.09-.11.15-.25.21-.39,1.09-2.56,2.84-4.64,4.71-6.65,1.84-1.98,3.67-3.98,5.27-6.15,2.4-3.25,4.4-6.74,5.13-10.82,0-.04.07-.08.13-.15.05.12.11.22.13.32.31,1.68.62,3.35.92,5.03.61,3.38,1.14,6.77,2.51,9.97,3.54,8.23,9.43,13.83,18.09,16.39.3.09.6.19.88.28.02.17.03.26.03.35.04,3.25-.78,6.33-1.78,9.38-.44,1.33-1.06,2.54-1.95,3.63-.82,1-1.58,2.04-2.41,3.04-1.22,1.48-2.49,2.89-3.99,4.1-1.85,1.48-3.96,2.11-6.31,2.01-3.4-.14-6.5-1.24-9.38-2.99-3.05-1.85-5.41-4.39-7.41-7.3-2.28-3.32-4.08-6.86-4.93-10.82-.32-1.52-.56-3.06-.75-4.6ZM353.52,66.76c0,.06.02.13.02.19-.26.12-.52.25-.78.35-.87.34-1.77.64-2.62,1.02-5.3,2.39-9.86,5.79-13.75,10.1-4.86,5.39-8.67,11.49-12.05,17.87-2.42,4.57-3.95,9.49-5.5,14.39-.94,2.98-2.24,5.81-3.64,8.59-.34.68-.77,1.33-1.25,1.92-1.18,1.43-1.94,3.06-2.6,4.78-.52,1.37-1.15,2.7-1.8,4.02-.48.98-1.15,1.85-2,2.56-1.09.91-2.32.9-3.31-.11-.52-.53-.96-1.2-1.28-1.87-.74-1.54-.9-3.22-.96-4.89-.13-3.63.25-7.22,1.03-10.75,2.25-10.23,6.74-19.41,13.15-27.64,6.81-8.72,15.17-15.41,25.75-19.1,2.97-1.04,6.02-1.57,9.16-1.55.81,0,1.62.08,2.43.12ZM364.66,66.51c.02.09.04.17.05.26-.23.21-.47.41-.69.63-.72.68-1.54,1.3-2.15,2.07-.91,1.15-1.76,2.36-2.51,3.62-3.43,5.79-4.66,12.11-4.43,18.77.1,2.85-.32,5.61-1.53,8.23-1.35,2.95-2.97,5.75-5.07,8.23-1.35,1.59-2.68,3.21-4.18,4.66-2.61,2.5-4.2,5.65-5.78,8.79-1.4,2.78-2.96,5.41-5.41,7.42-1.29,1.06-2.52,2.21-3.83,3.25-.75.6-1.56,1.16-2.41,1.61-1.75.92-3.24.66-4.68-.7-.96-.91-1.58-2.03-2.08-3.24-1.29-3.13-1.7-6.41-1.58-9.75.22-6.35,1.71-12.44,3.91-18.36,2.04-5.46,5.07-10.4,8.25-15.25,2.17-3.3,4.55-6.44,7.34-9.24,5.96-5.97,12.84-10.23,21.41-11.23,1.47-.17,2.98-.05,4.47-.03.29,0,.58.16.88.25ZM374.03,66.27c6.85.57,12.94,3.11,18.03,7.64,5.5,4.9,8.84,11.21,10.51,18.36.4,1.73.52,3.54.6,5.33.2,4.28-.19,8.5-1.68,12.57-.25.69-.47,1.39-.68,2.1-.98,3.25-2.57,6.15-4.69,8.82-2.7,3.4-6.08,5.65-10.31,6.63-1.99.46-4,.63-6.02.22-6.59-1.35-12.17-4.4-16.4-9.73-2.7-3.41-4.6-7.21-5.6-11.45-.36-1.54-.65-3.11-.98-4.66.02,0,.03,0,.05,0-.21-1.25-.39-2.5-.65-3.74-.8-3.7-.98-7.44-.71-11.21.46-6.46,2.68-12.24,6.65-17.35,1.52-1.96,3.47-3.21,5.98-3.52,1.96-.24,3.92-.15,5.88.01ZM389.28,61.21c8.94.99,17.19,4.05,24.89,8.59,5.42,3.19,9.97,7.44,14.09,12.16,6.25,7.16,10.62,15.25,12.12,24.73.36,2.27.58,4.55.29,6.84-.16,1.21-.42,2.44-.84,3.59-.78,2.09-2.71,3.06-4.9,2.6-1.25-.27-2.42-.76-3.43-1.54-1.02-.79-2.03-1.61-2.93-2.53-2.13-2.17-4.54-3.99-6.96-5.81-3.1-2.33-6.19-4.67-9.23-7.09-1.98-1.57-3.79-3.34-5.44-5.27-2.03-2.37-3.6-5-4.61-7.94-.91-2.64-1.96-5.21-3.39-7.62-1.77-3-3.76-5.82-6.35-8.18-2.91-2.66-6.35-4.42-9.94-5.94-3.02-1.27-6.21-1.71-9.44-1.99-.4-.03-.79-.14-1.18-.21-.04-.08-.08-.17-.11-.25.18-.24.32-.54.56-.7,1.68-1.15,3.49-2.05,5.46-2.59,3.73-1.02,7.51-1.24,11.35-.82ZM448.53,94.99c-.16,1.43-.77,2.4-2.55,1.32-1.19-.72-2.27-1.59-3.14-2.67-1.59-1.96-3.2-3.91-4.66-5.97-1.54-2.17-3.38-3.93-5.68-5.3-3.77-2.24-7.41-4.65-10.73-7.55-1.5-1.31-3.06-2.58-4.71-3.7-6.94-4.71-14.56-7.85-22.77-9.57-3.95-.83-7.94-1.26-11.98-.78-.18.02-.37-.05-.56-.08,0-.06-.02-.13-.03-.19,1.61-.51,3.21-1.11,4.85-1.52,4.35-1.09,8.8-1.47,13.27-1.5,5.44-.04,10.79.67,15.89,2.63,8.28,3.19,15.61,7.89,21.88,14.19,4.59,4.62,8.25,9.85,10.3,16.09.49,1.49.79,3.02.62,4.59Z"/>
            <g>
              <path class="cls-7" d="M381.63,61.26c.32.02.63.05.95.07,3.51.17,6.85,1.03,10,2.54,6.13,2.93,11.85,6.49,16.94,11.02,3.15,2.81,5.85,6.02,8.36,9.39,2.27,3.06,4.42,6.2,6.63,9.31.1.14.2.29.38.39-.09-.18-.18-.37-.29-.54-3.87-6.29-8.21-12.22-13.41-17.48-3.41-3.45-7.35-6.22-11.5-8.7-2.98-1.78-5.99-3.5-9.27-4.68-2.64-.95-5.36-1.51-8.17-1.52-.2,0-.4.04-.61.06,0,.05,0,.09-.01.14Z"/>
              <path class="cls-7" d="M307.48,117.7c.5-1.89.99-3.79,1.51-5.68,1.42-5.16,3.12-10.21,5.33-15.09,2.8-6.15,6.37-11.77,11.1-16.63,3.36-3.45,7.26-6.19,11.39-8.63.43-.25.85-.51,1.27-.77.05-.03.08-.08.06-.21-1.23.72-2.46,1.44-3.68,2.17-8.91,5.32-15.18,12.98-19.66,22.23-3.28,6.78-5.47,13.91-7.18,21.22-.11.45-.16.92-.25,1.38.03,0,.07.02.1.03Z"/>
              <path class="cls-7" d="M434.51,76.87c-1.38-1.18-2.75-2.37-4.14-3.52-3.01-2.49-6.1-4.88-9.45-6.92-5.08-3.11-10.57-5.21-16.32-6.68-4.19-1.07-8.44-1.68-12.76-1.72-.55,0-1.11.05-1.66.08-.08,0-.16.06-.23.22.32,0,.63-.02.95-.02,4.68,0,9.28.68,13.81,1.83,7.42,1.89,14.32,4.92,20.47,9.53,2.91,2.18,5.7,4.54,8.54,6.81.23.18.45.37.67.55.05-.06.09-.11.14-.17Z"/>
              <path class="cls-7" d="M387.58,107.13c-.29-3.03-1.01-6.12-1.72-9.2-.47-2.03-1-4.05-1.6-6.04-1.66-5.51-3.69-10.86-6.7-15.8-1.91-3.12-4.12-6-6.87-8.42-.66-.58-1.41-1.05-2.16-1.51-.54-.33-.72-.3-1.48-.16,2.17.53,3.53,2.03,4.95,3.42.29.29.56.6.83.91,3.16,3.52,5.59,7.52,7.45,11.85,1.14,2.66,2.15,5.37,3.11,8.1.62,1.77,1.08,3.59,1.52,5.42.93,3.85,1.8,7.72,2.66,11.43Z"/>
              <path class="cls-7" d="M361.8,65.92c-1.55.03-2.95.62-4.34,1.23-7.18,3.16-12.73,8.23-17.01,14.71-3.83,5.8-6.97,11.98-9.74,18.35-.07.16-.13.33-.19.49,0,.01.03.04.09.1.11-.21.22-.41.32-.61,2.57-5.48,5.3-10.89,8.46-16.06,3.25-5.32,7.26-9.96,12.45-13.5,2.43-1.66,5.04-2.96,7.77-4.05.7-.28,1.45-.45,2.18-.68Z"/>
              <path class="cls-7" d="M348.49,74.5c-1.31,1.56-2.68,3.08-3.92,4.69-6,7.76-10.17,16.45-13.03,25.8-.81,2.66-1.57,5.33-2.36,8,.07.03.14.05.21.08.08-.27.17-.53.25-.8,1.56-5.35,3.13-10.7,5.32-15.84,3.02-7.1,6.86-13.7,11.83-19.62.61-.73,1.24-1.45,1.86-2.17-.06-.05-.11-.09-.17-.14Z"/>
              <path class="cls-7" d="M384.17,63.79c.13.1.25.2.39.29,8.18,4.94,14.59,11.67,19.81,19.59,1.68,2.54,3.27,5.14,4.9,7.71.09.15.2.29.39.38-.1-.21-.19-.42-.31-.62-3.67-6.36-7.61-12.52-12.75-17.84-3.54-3.66-7.44-6.83-11.87-9.34-.17-.09-.34-.18-.5-.27-.02.03-.04.07-.07.1Z"/>
              <path class="cls-7" d="M390.33,64.3c5.43,2.98,10.59,6.38,15.31,10.43,4.72,4.04,8.55,8.89,12.45,13.68-3.32-4.65-6.86-9.13-11.12-12.98-5-4.51-10.55-8.23-16.65-11.13Z"/>
              <path class="cls-7" d="M322.06,96.54c.84-1.68,1.63-3.38,2.51-5.04,3.24-6.08,7.16-11.68,12.27-16.35,3-2.73,6.45-4.75,10.24-6.19.35-.13.7-.3,1.03-.47-1.32.28-2.53.86-3.75,1.41-4.95,2.23-8.93,5.67-12.35,9.83-4.11,4.98-7.43,10.43-9.91,16.39-.05.13-.11.26-.16.4.04.01.08.02.12.03Z"/>
              <path class="cls-7" d="M386.06,116.65c-.19-2-.36-4-.58-6-.2-1.89-.43-3.78-.69-5.67-.2-1.48-.43-2.96-.72-4.43-.51-2.62-1.01-5.25-1.64-7.85-.8-3.33-1.72-6.63-3.1-9.78-.09-.21-.21-.41-.42-.58.16.46.31.92.48,1.38.96,2.55,1.77,5.15,2.36,7.82.59,2.64,1.25,5.26,1.77,7.91.49,2.53.88,5.09,1.24,7.65.4,2.81.72,5.64,1.06,8.46.05.37.04.75.06,1.12.06,0,.12,0,.19-.01Z"/>
              <path class="cls-7" d="M368.13,77c-.13,6.47.63,12.87,1.8,19.21,1.17,6.36,3.19,12.48,5.72,18.43-2.16-6.05-4.26-12.11-5.44-18.45-1.17-6.35-1.88-12.74-2.08-19.19Z"/>
              <path class="cls-7" d="M364.21,137.04c-.9-9.96-3.15-19.63-6.3-29.09-.07,0-.14.01-.21.02-.01.1-.05.2-.03.28.56,1.91,1.12,3.82,1.71,5.72,1.71,5.57,2.76,11.29,3.87,17,.3,1.55.45,3.13.69,4.7.07.46.19.91.28,1.37Z"/>
              <path class="cls-7" d="M355.15,130.71c-.28-1.8-.58-3.42-.77-5.05-.21-1.8-.35-3.61-.48-5.42-.14-2.07-.26-4.14-.33-6.22-.18-5.12-.16-10.24.8-15.3.05-.24.05-.5-.07-.78-.06.13-.15.26-.18.41-.69,3.31-1,6.65-.96,10.03.03,3.21.11,6.43.25,9.64.08,1.78.35,3.55.5,5.33.21,2.43.63,4.82,1.24,7.36Z"/>
              <path class="cls-7" d="M320.93,124.65c.57-12.19,4.48-23.29,11.07-33.51-1.48,1.26-6.53,11.27-8.08,15.89-1.93,5.76-3.37,14.04-3,17.61Z"/>
              <path class="cls-7" d="M373.62,68.3c1.97,1.93,3.98,3.81,5.9,5.79,3.47,3.56,6.09,7.72,8.3,12.16,1.02,2.04,2.01,4.09,3.05,6.11-1.85-4.78-4.09-9.38-7.04-13.58-2.83-4.03-6.26-7.52-10.21-10.47Z"/>
              <path class="cls-7" d="M437.16,107.03c-1.67-5.22-3.83-10.23-6.61-14.96-3.35-5.7-7.35-10.87-12.45-15.13,1.64,1.7,3.35,3.34,4.89,5.12,1.57,1.82,3.06,3.72,4.43,5.69,1.38,1.99,2.66,4.07,3.84,6.19,1.16,2.09,2.19,4.26,3.17,6.45.98,2.18,1.83,4.43,2.74,6.64Z"/>
              <path class="cls-7" d="M366.79,104.22c-.11-.54-.22-1.08-.34-1.61-.74-3.36-1.59-6.7-2.19-10.08-.67-3.82-.78-7.69-.39-11.55.27-2.64.66-5.28.99-7.83-.02.04-.11.19-.14.34-.96,4.01-1.35,8.07-1.36,12.19,0,4.86,1.05,9.55,2.14,14.24.34,1.45.82,2.87,1.23,4.31.02,0,.03,0,.05-.01Z"/>
              <path class="cls-7" d="M399.99,115.8c.07-.3.17-.6.21-.9.3-2.21.3-4.43.13-6.66-.27-3.51-1.15-6.89-2.04-10.27-.53-2.03-1.16-4.05-2.21-6.04.39,1.24.76,2.35,1.09,3.46.38,1.26.79,2.52,1.08,3.8.49,2.12.96,4.25,1.34,6.39.55,3.07.65,6.17.21,9.27-.04.3-.06.61-.09.92.09.01.19.02.28.03Z"/>
              <path class="cls-7" d="M313,105.34c1.45-4.08,3.1-8.08,5.18-11.88,2.07-3.8,4.6-7.31,7.16-10.97-3.73,3.1-11.63,17.74-12.34,22.85Z"/>
              <path class="cls-7" d="M350.09,146.69c-.09-.3-.13-.56-.24-.81-.81-1.83-1.48-3.7-1.83-5.67-.36-2.02-.8-4.03-1.04-6.07-.35-2.93-.69-5.86-.64-8.83,0-.11-.04-.23-.16-.34-.01.55-.03,1.1-.03,1.66,0,.55-.02,1.11,0,1.66.14,3.84.65,7.65,1.37,11.41.46,2.42,1.2,4.76,2.38,6.95,0,.01.05,0,.2.03Z"/>
              <path class="cls-7" d="M409.28,126.16c-1.1-7.89-3.29-15.51-5.84-23.04.13.65.23,1.31.41,1.94.89,3.19,1.83,6.36,2.7,9.55.62,2.26,1.19,4.54,1.73,6.82.37,1.57.67,3.15.99,4.73Z"/>
              <path class="cls-7" d="M344.62,100.18c-1.28,3.04-2.24,6.18-2.9,9.4-.51,2.46-.86,4.96-1.25,7.45-.06.38-.2.86.26,1.24.51-6.25,2.08-12.2,3.89-18.09Z"/>
              <path class="cls-7" d="M418.02,107.23c-.06-.38-.07-.78-.18-1.15-1.47-4.58-3.38-8.98-5.66-13.21-.33-.61-.71-1.2-1.14-1.77.66,1.35,1.37,2.69,1.97,4.07,1.27,2.92,2.53,5.85,3.69,8.82.34.87.82,1.76.69,2.78-.02.17.21.36.32.54.1-.03.2-.06.3-.09Z"/>
              <path class="cls-7" d="M364.21,108.23c.28,2.04.8,4.06,1.5,6.02.83,2.31,1.63,4.63,2.56,6.9.49,1.18,1.23,2.25,1.88,3.36.13.23.35.41.54.61.06-.04.11-.09.17-.13-.1-.19-.16-.4-.29-.57-1.46-1.98-2.37-4.23-3.21-6.51-.73-1.97-1.44-3.95-2.1-5.95-.4-1.22-.7-2.48-1.04-3.72Z"/>
              <path class="cls-7" d="M372.1,144.08c-.22-6.14-1.91-11.94-4.09-17.62,1.79,5.77,3.44,11.58,4.09,17.62Z"/>
              <path class="cls-7" d="M419.19,68.28c-5.9-3.98-12.32-6.78-19.29-8.3,6.85,1.8,13.23,4.66,19.29,8.3Z"/>
              <path class="cls-7" d="M403.46,98.46c2.15,4.62,3.94,9.37,5.42,14.13-.12-2.33-4.12-12.96-5.42-14.13Z"/>
              <path class="cls-7" d="M352.35,101.97c-.14.45-.34.9-.41,1.36-.31,2.08-.67,4.16-.85,6.25-.19,2.12-.19,4.25-.27,6.38,0,.2.06.4.11.6.2-4.87.52-9.73,1.66-14.5-.08-.03-.16-.06-.23-.09Z"/>
              <path class="cls-7" d="M415.81,114.84c1.27,4.48,2.8,8.87,3.4,13.64.55-1.32-1.41-9.02-3.4-13.64Z"/>
              <path class="cls-7" d="M342.49,115.3c.74-3.43,1.48-6.86,2.21-10.29-1.21,3.33-2.02,6.75-2.41,10.27.06,0,.13.01.19.02Z"/>
              <path class="cls-7" d="M371.9,132.37c.67,3.32,1.3,6.62,1.58,9.98.44-1.36-.16-5.03-1.58-9.98Z"/>
              <path class="cls-7" d="M397.99,130.92c-.7-2.96-1.4-5.92-2.1-8.88-.06.02-.13.03-.19.05.37,3.04,1.22,5.96,2.3,8.83Z"/>
              <path class="cls-7" d="M397.51,137.72c-.97-2.52-1.7-5.11-2.28-7.92.11,2.85,1.33,7.21,2.28,7.92Z"/>
              <path class="cls-7" d="M400.96,101.02c.35,2.89.68,5.62,1.01,8.42.28-.62.22-2.39-.13-4.16-.27-1.37-.57-2.74-.89-4.27Z"/>
              <path class="cls-7" d="M424.28,71.89c1.79,1.36,3.58,2.73,5.36,4.09-1.56-1.66-3.42-2.95-5.36-4.09Z"/>
            </g>
          </g>
        </g>
      </g>
      <path class="cls-46" d="M680.67,660.78c7.53-3.51,15.41-4.9,23.65-3.67,8.83,1.32,16.72,4.83,23.41,10.85,5.66,5.1,9.57,11.25,11.57,18.65,2.08,7.71,2.85,25.22-8.25,35.61-9.97,9.33-24.2,15.53-42.82,10.46-.02,0-.03,0-.05-.02-6.47-2.49-12.18-6.23-17.03-11.16-6.22-6.33-9.7-14.04-10.98-22.8-1.02-7.04-.02-13.73,3.22-20.08,2.48-4.85,5.55-9.25,9.71-12.83,2.31-1.99,4.82-3.69,7.58-5.02Z"/>
      <path class="cls-28" d="M270.61,162.58c4.9-2.28,10.03-3.19,15.39-2.39,5.75.86,10.88,3.14,15.23,7.06,3.68,3.32,6.23,7.32,7.53,12.13,1.35,5.02,1.85,16.41-5.37,23.17-6.48,6.07-15.75,10.11-27.87,6.81-.01,0-.02,0-.03-.01-4.21-1.62-7.93-4.05-11.08-7.26-4.05-4.12-6.31-9.14-7.14-14.83-.66-4.58-.02-8.93,2.1-13.07,1.61-3.16,3.61-6.02,6.32-8.35,1.51-1.3,3.14-2.4,4.93-3.27Z"/>
      <g>
        <path class="cls-46" d="M388.03,279.8c-.02-.32-.04-.64-.07-.95-.35-4.34-.24-8.65.85-12.9.47-1.81,1.05-3.59,1.97-5.22.76-1.35,1.65-2.62,2.97-3.49.54-.35,1.13-.66,1.74-.85,1.73-.53,3.31.14,4.04,1.79.37.85.57,1.81.68,2.73.21,1.81.06,3.64-.38,5.4-.85,3.44-1.75,6.86-2.72,10.27-1.48,5.17-3.05,10.31-3.96,15.63-.31,1.84-.54,3.69-.81,5.58-.36.12-.63-.14-.86-.37-.7-.71-1.38-1.44-2.06-2.18-2.72-2.94-5.32-5.98-7.59-9.28-2.46-3.58-4.56-7.35-5.96-11.49-.86-2.55-1.45-5.16-1.47-7.87-.01-2.13.27-4.22,1.28-6.13.4-.76.91-1.48,1.5-2.1,1.2-1.25,2.87-1.05,3.94.47.49.7.89,1.5,1.17,2.3.75,2.23,1.45,4.48,2.11,6.74,1.04,3.56,2.04,7.13,3.07,10.69.12.41.27.82.4,1.23.05,0,.11,0,.16,0Z"/>
        <path class="cls-28" d="M271.35,870.6s.14-.14.23-.27c3.31-4.96,6.16-10.14,7.79-15.93,1.02-3.61,1.64-7.26,1.52-11.02-.06-1.74-.27-3.46-.96-5.09-.37-.85-.87-1.61-1.64-2.16-.97-.69-2.01-.83-3.14-.38-1.08.44-1.94,1.17-2.69,2.04-1.85,2.12-3.18,4.54-4.14,7.18-.1.27-.19.53-.3.8-.02.05-.08.09-.21.22-.18-.3-.34-.58-.5-.86-1-1.87-2.12-3.66-3.59-5.2-1.51-1.59-3.31-2.62-5.53-2.8-1.18-.1-2.33.04-3.43.49-1.83.75-2.94,2.46-2.96,4.45-.02,1.73.58,3.28,1.27,4.81,1.15,2.55,2.73,4.84,4.43,7.03,2.27,2.91,4.6,5.78,6.96,8.61,2.26,2.71,4.58,5.37,6.9,8.07Z"/>
        <path class="cls-28" d="M683.9,432s.11-.11.18-.21c2.61-3.91,4.86-8,6.15-12.56.8-2.85,1.3-5.73,1.2-8.69-.05-1.37-.21-2.73-.76-4.01-.29-.67-.69-1.27-1.29-1.7-.77-.55-1.59-.66-2.47-.3-.85.35-1.53.92-2.12,1.61-1.46,1.67-2.51,3.58-3.27,5.66-.08.21-.15.42-.24.63-.02.04-.07.07-.17.18-.14-.24-.27-.46-.39-.68-.78-1.48-1.68-2.88-2.83-4.1-1.19-1.25-2.61-2.06-4.36-2.21-.93-.08-1.84.03-2.71.39-1.44.59-2.32,1.94-2.34,3.51-.01,1.36.46,2.59,1,3.79.91,2.01,2.15,3.82,3.5,5.55,1.79,2.3,3.63,4.55,5.49,6.79,1.78,2.14,3.61,4.23,5.44,6.36Z"/>
        <path class="cls-46" d="M683.86,605.08c-.43-.47-.81-.88-1.19-1.29-2.91-3.23-5.55-6.66-7.72-10.45-1.52-2.65-2.77-5.42-3.26-8.47-.22-1.37-.22-2.75.25-4.09.28-.81.71-1.53,1.33-2.13,1.38-1.34,3.14-1.45,4.67-.28.95.73,1.66,1.68,2.29,2.69,1.2,1.92,2.08,3.99,2.86,6.11.24.65.47,1.3.83,1.95.07-.26.15-.53.22-.79.73-2.7,1.67-5.33,3.23-7.67.65-.98,1.42-1.89,2.25-2.73,1.03-1.05,2.32-1.66,3.77-1.94,3.09-.6,5.39,1.49,5.01,4.62-.15,1.2-.39,2.39-.73,3.55-.95,3.27-2.55,6.25-4.39,9.1-2.18,3.36-4.51,6.6-7.3,9.49-.72.74-1.39,1.53-2.12,2.35Z"/>
        <path class="cls-28" d="M90.19,374.92s.14-.11.24-.21c3.62-3.9,6.86-8.07,9.11-12.94,1.4-3.04,2.47-6.17,2.89-9.5.19-1.54.25-3.09-.13-4.62-.2-.8-.54-1.54-1.14-2.14-.76-.75-1.66-1.02-2.71-.77-1.02.23-1.87.76-2.66,1.42-1.93,1.61-3.44,3.56-4.66,5.74-.12.22-.25.44-.38.66-.03.04-.09.07-.22.17-.11-.29-.22-.56-.32-.83-.61-1.79-1.36-3.52-2.43-5.09-1.1-1.61-2.54-2.77-4.48-3.24-1.03-.25-2.06-.29-3.09-.05-1.72.4-2.94,1.76-3.24,3.51-.26,1.52.05,2.97.44,4.42.66,2.41,1.72,4.65,2.92,6.82,1.59,2.89,3.24,5.74,4.92,8.57,1.61,2.71,3.28,5.37,4.94,8.08Z"/>
      </g>
      <g>
        <path class="cls-3" d="M122.96,232.04c.07-.46.09-.71.14-.97.22-1.09.39-2.2.71-3.27.16-.55.51-1.1.9-1.53,1.15-1.28,2.77-1.15,3.76.26.68.98.9,2.1.92,3.26.07,3.54-.91,6.79-2.88,9.74-.38.57-.78,1.11-1.14,1.62-.7.23-1.27.05-1.77-.31-1.04-.74-2.12-1.45-3.07-2.3-1.21-1.09-2.36-2.27-3.45-3.48-.84-.94-1.45-2.07-1.74-3.3-.14-.57-.19-1.2-.1-1.77.16-1.02.99-1.64,2.02-1.69.68-.03,1.29.17,1.88.48,1.2.63,2.2,1.51,3.1,2.51.19.21.39.41.72.76Z"/>
        <path class="cls-3" d="M124.46,117.12c.78-.56,1.42-1.08,2.12-1.51.69-.43,1.41-.88,2.18-1.13,1.56-.5,2.59.52,2.17,2.09-.16.59-.41,1.17-.73,1.68-1.3,2.09-3.16,3.57-5.32,4.7-1.09.57-2.17.56-3.04-.31-2-2.03-3.54-4.37-3.94-7.27-.14-1.04,0-2.15,1.1-2.66,1.05-.48,2.02-.06,2.78.76.56.6,1.08,1.24,1.57,1.9.37.49.66,1.03,1.11,1.75Z"/>
        <path class="cls-3" d="M481.6,139.25c.23-.35.35-.55.49-.73.61-.8,1.18-1.64,1.85-2.39.35-.39.85-.69,1.33-.9,1.43-.6,2.71.14,2.96,1.67.18,1.06-.08,2.07-.52,3.02-1.33,2.91-3.38,5.18-6.13,6.81-.53.31-1.07.6-1.56.88-.66-.08-1.06-.46-1.33-.94-.56-1.01-1.17-2.01-1.61-3.07-.57-1.36-1.04-2.77-1.46-4.18-.32-1.09-.37-2.25-.13-3.37.11-.52.31-1.05.61-1.48.52-.77,1.44-.96,2.3-.59.56.24.99.64,1.35,1.12.73.98,1.21,2.08,1.55,3.25.07.25.16.49.3.9Z"/>
        <path class="cls-3" d="M402.14,849.64c.53-1.7.86-3.14,1.43-4.49.4-.97.96-1.95,1.71-2.67,1.32-1.28,3.07-1.03,4.23.41.9,1.11,1.21,2.44,1.02,3.8-.35,2.53-.79,5.04-2.05,7.34-.54.99-.8,2.14-1.16,3.22-.36,1.09-.61,2.21-1.02,3.27-.51,1.33-1.43,1.75-2.52,1-4.76-3.33-8.89-7.21-10.69-12.98-.16-.5-.24-1.06-.2-1.58.16-1.95,1.42-2.87,3.19-2.04,1.55.72,2.92,1.86,4.31,2.89.58.43,1.01,1.05,1.75,1.83Z"/>
        <path class="cls-3" d="M597.45,784.61c.38-1.24.63-2.29,1.04-3.28.29-.7.7-1.43,1.25-1.95.97-.93,2.24-.75,3.09.3.66.81.88,1.78.74,2.77-.26,1.84-.58,3.68-1.49,5.36-.39.72-.58,1.56-.84,2.35-.26.79-.45,1.61-.75,2.39-.37.97-1.05,1.28-1.84.73-3.47-2.43-6.48-5.26-7.8-9.47-.11-.37-.18-.78-.15-1.16.11-1.42,1.04-2.09,2.33-1.49,1.13.53,2.13,1.36,3.14,2.11.42.31.74.76,1.28,1.34Z"/>
        <path class="cls-3" d="M368.63,837.12c.35-.27.75-.63,1.19-.91.96-.61,2.09-.59,2.87.01.67.52.91,1.45.5,2.55-.81,2.16-2.3,3.77-4.36,4.78-1.41.69-2.54.2-3.32-1.18-.56-.99-1.37-1.89-1.37-3.1,0-.82.04-1.68.26-2.47.31-1.15,1.16-1.55,2.25-1.06.7.32,1.28.89,1.97,1.38Z"/>
        <path class="cls-3" d="M422.52,661.8c.54-.42,1.15-.96,1.82-1.39,1.47-.93,3.19-.9,4.39.02,1.03.79,1.4,2.22.77,3.9-1.24,3.31-3.52,5.78-6.67,7.31-2.17,1.06-3.89.3-5.08-1.81-.86-1.52-2.1-2.89-2.1-4.75,0-1.26.07-2.57.4-3.78.48-1.77,1.78-2.38,3.45-1.62,1.07.49,1.97,1.36,3.02,2.11Z"/>
        <path class="cls-3" d="M684.61,273.45c.54-.64.91-1.13,1.33-1.57.99-1.03,2.12-1.85,3.54-2.19,2.86-.7,5.12,1.24,4.62,4.12-.84,4.92-3.47,8.75-7.48,11.67-.5.37-1.06.67-1.6.98-1.67.97-3.5.91-4.92-.42-.93-.88-1.73-1.96-2.33-3.09-1.63-3.12-2.27-6.48-1.85-9.99.1-.86.35-1.75.74-2.53,1.02-2.05,3.3-2.68,5.13-1.3.88.66,1.48,1.7,2.13,2.62.28.4.37.93.67,1.72Z"/>
        <path class="cls-3" d="M98.51,611.45c.54-.64.91-1.13,1.33-1.57.99-1.03,2.12-1.85,3.54-2.19,2.86-.7,5.12,1.24,4.62,4.12-.84,4.92-3.47,8.75-7.48,11.67-.5.37-1.06.67-1.6.98-1.67.97-3.5.91-4.92-.42-.93-.88-1.73-1.96-2.33-3.09-1.63-3.12-2.27-6.48-1.85-9.99.1-.86.35-1.75.74-2.53,1.02-2.05,3.3-2.68,5.13-1.3.88.66,1.48,1.7,2.13,2.62.28.4.37.93.67,1.72Z"/>
        <path class="cls-3" d="M347.77,310.11c1.04-.33,1.95-.63,2.87-.9,1.02-.3,2.11-.16,2.57.75.37.75.46,1.91.15,2.67-1.18,2.82-5.98,5.34-9.02,4.94-1.47-.19-2.63-.81-3.05-2.32-.79-2.85-.87-5.71.03-8.55.38-1.2,1.07-2.19,2.51-2.26,1.48-.07,2.5.73,3.01,1.99.45,1.09.59,2.3.93,3.67Z"/>
        <path class="cls-3" d="M353.58,183.21c1.32-1.35,1.71-3.59,4.07-2.86,1.74,3.02-1.05,8.92-4.57,9.63-2.19-1.95-4.24-4.03-4.86-7.1-.09-.42-.38-.9-.27-1.25.24-.76.52-1.72,1.11-2.1.4-.26,1.54.11,2.01.55.93.86,1.62,1.98,2.52,3.13Z"/>
      </g>
    </g>
  </g>
  <g id="TEXTS">
    <text class="cls-20" transform="translate(134.63 649.24)"><tspan class="cls-55" x="0" y="0">L</tspan><tspan class="cls-2" x="4.98" y="0">OREM IPSUM DO</tspan><tspan class="cls-41" x="85.03" y="0">L</tspan><tspan class="cls-39" x="90.01" y="0">OR SIT </tspan></text>
    <text class="cls-16" transform="translate(134.63 666.39)"><tspan class="cls-8" x="0" y="0">L</tspan><tspan x="4.67" y="0">o</tspan><tspan class="cls-29" x="10.28" y="0">r</tspan><tspan x="13.51" y="0">em ipsum dolor sit ame</tspan><tspan class="cls-45" x="113.21" y="0">t</tspan><tspan x="116.55" y="0">, </tspan><tspan class="cls-51" x="120.83" y="0">c</tspan><tspan x="125.34" y="0">onse</tspan><tspan class="cls-11" x="145.76" y="0">c</tspan><tspan class="cls-51" x="150.46" y="0">t</tspan><tspan x="153.78" y="0">etuer </tspan><tspan x="0" y="14.29">adipiscing eli</tspan><tspan class="cls-45" x="55.69" y="14.29">t</tspan><tspan x="59.04" y="14.29">, sed diam nonum</tspan><tspan class="cls-33" x="135.19" y="14.29">m</tspan><tspan x="143.57" y="14.29">y nibh euismod </tspan><tspan x="0" y="28.57">tincidu</tspan><tspan class="cls-32" x="29.77" y="28.57">n</tspan><tspan x="35.39" y="28.57">t ut lao</tspan><tspan class="cls-23" x="65.02" y="28.57">r</tspan><tspan x="68.26" y="28.57">eet dolo</tspan><tspan class="cls-29" x="103.39" y="28.57">r</tspan><tspan x="106.63" y="28.57">e ma</tspan><tspan class="cls-48" x="127.33" y="28.57">g</tspan><tspan x="132.97" y="28.57">na aliquam e</tspan><tspan class="cls-4" x="187.5" y="28.57">r</tspan><tspan class="cls-54" x="190.79" y="28.57">a</tspan><tspan x="195.67" y="28.57">t </tspan></text>
    <text class="cls-16" transform="translate(134.63 746.85)"><tspan class="cls-8" x="0" y="0">L</tspan><tspan x="4.67" y="0">o</tspan><tspan class="cls-29" x="10.28" y="0">r</tspan><tspan x="13.51" y="0">em ipsum dolor sit ame</tspan><tspan class="cls-45" x="113.21" y="0">t</tspan><tspan x="116.55" y="0">, </tspan><tspan class="cls-51" x="120.83" y="0">c</tspan><tspan x="125.34" y="0">onse</tspan><tspan class="cls-11" x="145.76" y="0">c</tspan><tspan class="cls-51" x="150.46" y="0">t</tspan><tspan x="153.78" y="0">etuer </tspan><tspan x="0" y="14.29">adipiscing eli</tspan><tspan class="cls-45" x="55.69" y="14.29">t</tspan><tspan x="59.04" y="14.29">, sed diam nonum</tspan><tspan class="cls-33" x="135.19" y="14.29">m</tspan><tspan x="143.57" y="14.29">y nibh euismod </tspan></text>
    <text class="cls-20" transform="translate(133.38 730.19)"><tspan class="cls-44" x="0" y="0">P</tspan><tspan class="cls-26" x="5.15" y="0">A</tspan><tspan class="cls-13" x="11.23" y="0">Y</tspan><tspan class="cls-39" x="17.29" y="0">MENT INFO:</tspan></text>
    <g>
      <text class="cls-20" transform="translate(488.25 641.43)"><tspan class="cls-2" x="0" y="0">SU</tspan><tspan class="cls-21" x="12.98" y="0">B</tspan><tspan class="cls-9" x="19.06" y="0">T</tspan><tspan class="cls-37" x="24.45" y="0">O</tspan><tspan class="cls-12" x="31.98" y="0">T</tspan><tspan class="cls-2" x="36.84" y="0">AL</tspan><tspan class="cls-12" x="0" y="16">T</tspan><tspan class="cls-42" x="4.86" y="16">A</tspan><tspan class="cls-2" x="11.66" y="16">X</tspan><tspan class="cls-2" x="0" y="48">G</tspan><tspan class="cls-14" x="7.33" y="48">R</tspan><tspan class="cls-2" x="13.52" y="48">AND</tspan><tspan class="cls-40" x="35.47" y="48"> </tspan><tspan class="cls-9" x="37.58" y="48">T</tspan><tspan class="cls-37" x="42.97" y="48">O</tspan><tspan class="cls-12" x="50.49" y="48">T</tspan><tspan class="cls-2" x="55.35" y="48">AL</tspan></text>
      <text class="cls-19" transform="translate(581.67 641.63)"><tspan x="0" y="0">$100.00</tspan><tspan x="0" y="16">00%</tspan><tspan x="0" y="48">$100.00</tspan></text>
    </g>
    <g>
      <g>
        <text class="cls-20" transform="translate(153.86 382.62)"><tspan class="cls-39" x="0" y="0">ITEM N</tspan><tspan class="cls-47" x="33.24" y="0">A</tspan><tspan class="cls-39" x="40.15" y="0">ME</tspan></text>
        <text class="cls-19" transform="translate(421.23 382.62)"><tspan x="0" y="0">PRICE</tspan></text>
        <text class="cls-20" transform="translate(574.95 382.62)"><tspan class="cls-5" x="0" y="0">T</tspan><tspan class="cls-1" x="5.39" y="0">O</tspan><tspan class="cls-12" x="12.91" y="0">T</tspan><tspan class="cls-43" x="17.78" y="0">AL</tspan></text>
        <text class="cls-20" transform="translate(505.43 382.62)"><tspan class="cls-1" x="0" y="0">Q</tspan><tspan class="cls-30" x="7.52" y="0">T</tspan><tspan class="cls-2" x="13.52" y="0">Y</tspan></text>
      </g>
      <g>
        <text class="cls-16" transform="translate(153.86 416.38)"><tspan class="cls-8" x="0" y="0">L</tspan><tspan x="4.67" y="0">o</tspan><tspan class="cls-29" x="10.28" y="0">r</tspan><tspan x="13.51" y="0">em ipsum dolor sit </tspan></text>
        <text class="cls-16" transform="translate(424.88 416.38)"><tspan x="0" y="0">$10,00</tspan></text>
        <text class="cls-16" transform="translate(579.64 415.86)"><tspan x="0" y="0">$10,00</tspan></text>
        <text class="cls-16" transform="translate(516.59 417.1)"><tspan x="0" y="0">1</tspan></text>
      </g>
      <g>
        <text class="cls-16" transform="translate(154.95 452.89)"><tspan class="cls-8" x="0" y="0">L</tspan><tspan x="4.67" y="0">o</tspan><tspan class="cls-29" x="10.28" y="0">r</tspan><tspan x="13.51" y="0">em ipsum dolor sit amet </tspan><tspan class="cls-48" x="118.75" y="0">c</tspan><tspan x="123.26" y="0">onse</tspan><tspan class="cls-10" x="143.68" y="0">c</tspan><tspan class="cls-48" x="148.38" y="0">t</tspan><tspan x="151.7" y="0">e</tspan><tspan x="156.81" y="0">-</tspan></text>
        <text class="cls-16" transform="translate(424.88 454.19)"><tspan x="0" y="0">$10,00</tspan></text>
        <text class="cls-16" transform="translate(579.64 453.67)"><tspan x="0" y="0">$10,00</tspan></text>
        <text class="cls-16" transform="translate(516.59 454.91)"><tspan x="0" y="0">1</tspan></text>
      </g>
      <g>
        <text class="cls-16" transform="translate(154.95 495.06)"><tspan class="cls-8" x="0" y="0">L</tspan><tspan x="4.67" y="0">o</tspan><tspan class="cls-29" x="10.28" y="0">r</tspan><tspan x="13.51" y="0">em ipsum dolor sit </tspan></text>
        <text class="cls-16" transform="translate(425.96 495.07)"><tspan x="0" y="0">$10,00</tspan></text>
        <text class="cls-16" transform="translate(580.73 494.55)"><tspan x="0" y="0">$10,00</tspan></text>
        <text class="cls-16" transform="translate(517.67 495.78)"><tspan x="0" y="0">1</tspan></text>
      </g>
      <g>
        <text class="cls-16" transform="translate(154.69 573.75)"><tspan class="cls-8" x="0" y="0">L</tspan><tspan x="4.67" y="0">o</tspan><tspan class="cls-29" x="10.28" y="0">r</tspan><tspan x="13.51" y="0">em ipsum dolor sit </tspan></text>
        <text class="cls-16" transform="translate(425.7 573.75)"><tspan x="0" y="0">$10,00</tspan></text>
        <text class="cls-16" transform="translate(580.47 573.23)"><tspan x="0" y="0">$10,00</tspan></text>
        <text class="cls-16" transform="translate(517.41 574.47)"><tspan x="0" y="0">1</tspan></text>
      </g>
      <g>
        <text class="cls-16" transform="translate(156.04 531.58)"><tspan class="cls-8" x="0" y="0">L</tspan><tspan x="4.67" y="0">o</tspan><tspan class="cls-29" x="10.28" y="0">r</tspan><tspan x="13.51" y="0">em ipsum dolor sit amet </tspan><tspan class="cls-48" x="118.75" y="0">c</tspan><tspan x="123.26" y="0">onse</tspan><tspan class="cls-10" x="143.68" y="0">c</tspan><tspan class="cls-48" x="148.38" y="0">t</tspan><tspan x="151.7" y="0">e</tspan><tspan x="156.81" y="0">-</tspan></text>
        <text class="cls-16" transform="translate(425.96 532.88)"><tspan x="0" y="0">$10,00</tspan></text>
        <text class="cls-16" transform="translate(580.73 532.36)"><tspan x="0" y="0">$10,00</tspan></text>
        <text class="cls-16" transform="translate(517.67 533.59)"><tspan x="0" y="0">1</tspan></text>
      </g>
    </g>
    <g>
      <text class="cls-20" transform="translate(134.63 305.58)"><tspan class="cls-39" x="0" y="0">INVOICE N</tspan><tspan class="cls-31" x="49.55" y="0">O</tspan><tspan class="cls-2" x="56.98" y="0">.: 000 00234</tspan><tspan class="cls-56" x="0" y="13.2">D</tspan><tspan class="cls-6" x="7.39" y="13.2">A</tspan><tspan class="cls-39" x="13.5" y="13.2">TE: 20 / 10 / 2021</tspan></text>
      <text class="cls-20" transform="translate(488.86 305.58)"><tspan class="cls-2" x="0" y="0">INVOICE</tspan><tspan class="cls-40" x="39.54" y="0"> </tspan><tspan class="cls-5" x="41.65" y="0">T</tspan><tspan class="cls-34" x="47.04" y="0">O: MIR</tspan><tspan class="cls-25" x="77.93" y="0">K</tspan><tspan class="cls-2" x="83.93" y="0">O </tspan><tspan class="cls-35" x="94.28" y="0">M</tspan><tspan class="cls-2" x="103.23" y="0">ANH</tspan><tspan class="cls-6" x="125.04" y="0">A</tspan><tspan class="cls-12" x="131.14" y="0">T</tspan><tspan class="cls-43" x="136" y="0">AN</tspan><tspan class="cls-34" x="25.22" y="13.2">35 STRE</tspan><tspan class="cls-36" x="62.6" y="13.2">E</tspan><tspan class="cls-2" x="68.41" y="13.2">T AREA. </tspan><tspan class="cls-50" x="107.37" y="13.2">L</tspan><tspan class="cls-2" x="112.35" y="13.2">ONDON</tspan></text>
    </g>
    <text class="cls-18" transform="translate(457.54 247.1)"><tspan x="0" y="0">INVOICE</tspan></text>
    <g>
      <g>
        <path class="cls-17" d="M578.36,137.54c-1.63-.2-3.37-.55-5.15-.95-3.7-.82-7.61-1.83-11.21-2.03-4.53-.25-8.56.77-11.09,5.05-.05.09-.11.18-.16.28-4.49,8.05-1.59,18.25,6.46,22.74,8.05,4.49,18.25,1.59,22.74-6.46,2.78-5,2.72-10.82.34-15.59,1.67-.69,3.08-1.79,4.27-3.43-1.75.66-3.87.68-6.2.39ZM577.48,154.78c-3.73,6.69-12.2,9.09-18.88,5.37-4.4-2.45-6.95-6.97-7.11-11.67-.01-7.13,6.41-9.32,13.56-8.04,5.06.9,9.16,1.39,12.45.89,2.23,4.05,2.39,9.13-.02,13.46Z"/>
        <path class="cls-17" d="M551.05,135.77c11.22-10.42,26.28,3.6,35.09-1.46-9.43,1.44-26.91-17.57-35.09,1.46Z"/>
        <path class="cls-17" d="M555.58,126.68c-.22-3.19-5.3-4.35-7.05-1.09-.79-.03-2.12.13-3.52,1.31,2.44,0,4.96,1.53,5.1,8.17.71-4.43,2.63-7.04,5.47-8.38Z"/>
      </g>
      <text class="cls-15" transform="translate(595.95 140.53) scale(.7)"><tspan class="cls-52"><tspan x="0" y="0">RING</tspan></tspan><tspan class="cls-38" x="0" y="23.16">L</tspan><tspan class="cls-52" x="7.48" y="23.16">OGO</tspan></text>
    </g>
  </g>
</svg>